<svg width="285" height="170" viewBox="0 0 285 170" fill="none" xmlns="http://www.w3.org/2000/svg">
<g clip-path="url(#clip0_1_599)">
<rect width="285" height="170" rx="15" fill="url(#paint0_linear_1_599)"/>
<rect opacity="0.01" width="285" height="170" rx="10" fill="white"/>
<mask id="mask0_1_599" style="mask-type:luminance" maskUnits="userSpaceOnUse" x="0" y="0" width="285" height="170">
<rect width="285" height="170" rx="10" fill="white"/>
</mask>
<g mask="url(#mask0_1_599)">
<g opacity="0.101761">
<path fill-rule="evenodd" clip-rule="evenodd" d="M306.847 91.9022C306.625 109.726 322.723 119.68 334.852 125.601C347.314 131.67 351.505 135.567 351.455 140.995C351.357 149.308 341.508 152.972 332.288 153.107C320.846 153.358 309.531 150.665 299.427 145.287L293.634 172.424C304.974 176.844 317.049 179.075 329.219 178.998C362.832 178.998 384.822 162.395 384.945 136.653C385.026 117.088 368.819 108.571 355.866 101.763C347.186 97.2014 339.967 93.4077 340.091 87.5726C340.202 83.1445 344.417 78.4202 353.649 77.2114C364.474 76.1734 375.378 78.0872 385.204 82.7497L390.825 56.5013C381.248 52.8945 371.104 51.0314 360.872 51C329.231 51 306.983 67.8246 306.798 91.9268L306.847 91.9022ZM444.85 53.2696C438.903 53.246 433.538 56.8383 431.291 62.348L383.22 177.062H416.808L423.489 158.559H464.535L468.417 177.062H498L472.115 53.2573H444.936L444.85 53.2696ZM459.321 133.236L449.632 86.7092L449.595 86.6845L432.77 133.236H459.321ZM266.122 53.2449L239.645 177.049H271.693L298.157 53.2449H266.122ZM185.485 137.516L218.765 53.2449H218.777H252.378L200.535 177.049H166.712L141.185 78.2475C140.717 73.5428 137.835 69.421 133.579 67.3683C123.534 62.5499 112.925 59.011 102 56.8344L102.764 53.2449H157.196C164.565 53.2173 170.849 58.5784 171.987 65.8634L185.485 137.516Z" fill="white"/>
</g>
</g>
<path d="M157.832 145.17C159.912 145.17 161.148 143.465 161.148 140.758C161.148 138.051 159.9 136.375 157.832 136.375C155.758 136.375 154.504 138.062 154.504 140.764C154.504 143.477 155.746 145.17 157.832 145.17ZM157.832 143.934C156.684 143.934 156.027 142.762 156.027 140.758C156.027 138.789 156.695 137.611 157.832 137.611C158.963 137.611 159.625 138.783 159.625 140.764C159.625 142.768 158.975 143.934 157.832 143.934ZM162.895 145H167.57C167.969 145 168.215 144.754 168.215 144.385C168.215 144.01 167.969 143.764 167.57 143.764H164.195V143.734L166.135 141.824C167.535 140.453 168.01 139.785 168.01 138.795C168.01 137.377 166.844 136.375 165.15 136.375C163.504 136.375 162.49 137.342 162.262 138.256C162.232 138.355 162.215 138.461 162.215 138.572C162.215 138.947 162.461 139.199 162.871 139.199C163.217 139.199 163.393 139.041 163.545 138.736C163.844 137.975 164.377 137.588 165.139 137.588C165.953 137.588 166.533 138.133 166.533 138.889C166.533 139.533 166.264 139.961 165.186 141.027L162.602 143.588C162.279 143.893 162.18 144.068 162.18 144.361C162.18 144.742 162.426 145 162.895 145ZM169.434 147.016C169.773 147.016 169.979 146.846 170.084 146.5L172.768 137.266C172.791 137.178 172.797 137.107 172.797 137.025C172.797 136.668 172.545 136.428 172.17 136.428C171.818 136.428 171.619 136.604 171.508 136.979L168.836 146.178C168.818 146.242 168.801 146.342 168.801 146.441C168.801 146.775 169.041 147.016 169.434 147.016ZM174.297 145H178.973C179.371 145 179.617 144.754 179.617 144.385C179.617 144.01 179.371 143.764 178.973 143.764H175.598V143.734L177.537 141.824C178.938 140.453 179.412 139.785 179.412 138.795C179.412 137.377 178.246 136.375 176.553 136.375C174.906 136.375 173.893 137.342 173.664 138.256C173.635 138.355 173.617 138.461 173.617 138.572C173.617 138.947 173.863 139.199 174.273 139.199C174.619 139.199 174.795 139.041 174.947 138.736C175.246 137.975 175.779 137.588 176.541 137.588C177.355 137.588 177.936 138.133 177.936 138.889C177.936 139.533 177.666 139.961 176.588 141.027L174.004 143.588C173.682 143.893 173.582 144.068 173.582 144.361C173.582 144.742 173.828 145 174.297 145ZM183.713 145.17C185.564 145.17 186.877 144.15 186.877 142.65C186.877 141.473 186.051 140.723 184.803 140.605V140.576C185.822 140.365 186.578 139.656 186.578 138.596C186.578 137.289 185.453 136.375 183.701 136.375C182.324 136.375 181.387 136.99 180.988 137.828C180.883 138.033 180.842 138.221 180.842 138.432C180.842 138.818 181.064 139.064 181.486 139.064C181.838 139.064 182.002 138.93 182.166 138.566C182.447 137.904 182.91 137.576 183.707 137.576C184.645 137.576 185.125 138.068 185.125 138.801C185.125 139.551 184.504 140.084 183.572 140.084H183.127C182.752 140.084 182.529 140.312 182.529 140.646C182.529 140.98 182.752 141.209 183.127 141.209H183.607C184.691 141.209 185.348 141.713 185.342 142.615C185.342 143.383 184.691 143.934 183.73 143.934C182.805 143.934 182.295 143.553 182.002 142.914C181.844 142.604 181.656 142.469 181.346 142.469C180.924 142.469 180.672 142.721 180.672 143.119C180.672 143.318 180.719 143.512 180.83 143.717C181.27 144.566 182.23 145.17 183.713 145.17Z" fill="white"/>
<path d="M155.123 124H158.702C158.951 124 159.122 123.839 159.122 123.604C159.122 123.37 158.951 123.209 158.702 123.209H155.562V120.787H158.526C158.771 120.787 158.941 120.626 158.941 120.396C158.941 120.162 158.771 120.006 158.526 120.006H155.562V117.745H158.702C158.951 117.745 159.122 117.584 159.122 117.35C159.122 117.115 158.951 116.954 158.702 116.954H155.123C154.854 116.954 154.684 117.13 154.684 117.408V123.546C154.684 123.824 154.854 124 155.123 124ZM160.27 124.088C160.406 124.088 160.509 124.034 160.587 123.922L161.856 122.066H161.876L163.136 123.922C163.209 124.034 163.321 124.088 163.458 124.088C163.688 124.088 163.863 123.927 163.863 123.717C163.863 123.634 163.834 123.551 163.775 123.463L162.345 121.427L163.795 119.444C163.849 119.371 163.878 119.283 163.878 119.195C163.878 118.99 163.697 118.834 163.458 118.834C163.321 118.834 163.229 118.893 163.131 119.034L161.905 120.826H161.886L160.631 119.015C160.538 118.883 160.455 118.834 160.309 118.834C160.074 118.834 159.894 118.99 159.894 119.195C159.894 119.288 159.923 119.371 159.981 119.454L161.417 121.461L159.952 123.478C159.898 123.556 159.869 123.639 159.869 123.722C159.869 123.932 160.04 124.088 160.27 124.088ZM165.201 125.792C165.45 125.792 165.626 125.606 165.626 125.338V123.175H165.646C165.948 123.731 166.534 124.088 167.262 124.088C168.541 124.088 169.415 123.053 169.415 121.461C169.415 119.869 168.536 118.834 167.242 118.834C166.505 118.834 165.914 119.21 165.602 119.781H165.582V119.264C165.582 119.01 165.416 118.834 165.182 118.834C164.942 118.834 164.776 119.01 164.776 119.264V125.338C164.776 125.606 164.952 125.792 165.201 125.792ZM167.076 123.341C166.207 123.341 165.621 122.594 165.621 121.461C165.621 120.333 166.207 119.581 167.076 119.581C167.979 119.581 168.546 120.313 168.546 121.461C168.546 122.613 167.979 123.341 167.076 123.341ZM170.699 124.049C171.012 124.049 171.256 123.805 171.256 123.492C171.256 123.18 171.012 122.936 170.699 122.936C170.387 122.936 170.143 123.18 170.143 123.492C170.143 123.805 170.387 124.049 170.699 124.049ZM174.654 124H176.583C178.678 124 179.908 122.696 179.908 120.475C179.908 118.258 178.673 116.954 176.583 116.954H174.654C174.386 116.954 174.215 117.13 174.215 117.408V123.546C174.215 123.824 174.386 124 174.654 124ZM175.094 123.209V117.745H176.524C178.126 117.745 179.01 118.722 179.01 120.484C179.01 122.232 178.121 123.209 176.524 123.209H175.094ZM182.35 124.088C183.033 124.088 183.683 123.707 183.985 123.126H184.005V123.658C184.005 123.912 184.171 124.088 184.41 124.088C184.645 124.088 184.811 123.912 184.811 123.658V120.489C184.811 119.479 184.059 118.834 182.867 118.834C182.042 118.834 181.3 119.2 181.012 119.757C180.943 119.879 180.909 120.001 180.909 120.108C180.909 120.338 181.065 120.489 181.285 120.489C181.446 120.489 181.559 120.426 181.637 120.284C181.92 119.781 182.296 119.581 182.848 119.581C183.551 119.581 183.961 119.952 183.961 120.572V120.997L182.501 121.08C181.329 121.148 180.66 121.695 180.66 122.564C180.66 123.478 181.339 124.088 182.35 124.088ZM182.54 123.365C181.93 123.365 181.524 123.048 181.524 122.564C181.524 122.086 181.915 121.783 182.599 121.739L183.961 121.656V122.071C183.961 122.804 183.341 123.365 182.54 123.365ZM186.163 122.828C186.163 123.639 186.573 124.039 187.394 124.039H187.447C187.921 124.039 188.067 123.902 188.067 123.644C188.067 123.443 187.94 123.331 187.662 123.312L187.589 123.307C187.164 123.277 187.013 123.072 187.013 122.643V119.62H187.667C187.911 119.62 188.048 119.493 188.048 119.269C188.048 119.049 187.911 118.922 187.667 118.922H187.013V118.053C187.013 117.784 186.837 117.599 186.588 117.599C186.339 117.599 186.163 117.784 186.163 118.053V118.922H185.738C185.494 118.922 185.357 119.049 185.357 119.269C185.357 119.493 185.494 119.62 185.738 119.62H186.163V122.828ZM190.89 124.088C191.817 124.088 192.53 123.697 192.857 123.009C192.896 122.916 192.921 122.828 192.921 122.76C192.921 122.535 192.77 122.389 192.545 122.389C192.413 122.389 192.315 122.438 192.228 122.56C191.832 123.136 191.461 123.351 190.855 123.351C189.947 123.351 189.386 122.716 189.386 121.69H192.56C192.853 121.69 193.028 121.505 193.028 121.197C193.028 119.806 192.115 118.834 190.816 118.834C189.415 118.834 188.512 119.879 188.512 121.48C188.512 123.121 189.391 124.088 190.89 124.088ZM189.391 121.026C189.444 120.152 190.011 119.571 190.802 119.571C191.588 119.571 192.13 120.147 192.149 121.026H189.391Z" fill="white"/>
<path d="M23.5625 145.1C24.0371 145.1 24.3184 144.812 24.3184 144.314V137.822H26.252C26.6621 137.822 26.9434 137.576 26.9434 137.184C26.9434 136.791 26.668 136.545 26.252 136.545H20.8789C20.4629 136.545 20.1875 136.791 20.1875 137.184C20.1875 137.576 20.4688 137.822 20.8789 137.822H22.8125V144.314C22.8125 144.812 23.0938 145.1 23.5625 145.1ZM28.0684 145.1C28.8711 145.1 29.6504 144.684 30.0078 144.01H30.0371V144.443C30.0605 144.877 30.3359 145.117 30.7344 145.117C31.1445 145.117 31.4434 144.854 31.4434 144.385V140.723C31.4434 139.475 30.4414 138.66 28.9004 138.66C27.7109 138.66 26.75 139.117 26.4336 139.838C26.3691 139.973 26.334 140.102 26.334 140.236C26.334 140.588 26.5918 140.822 26.9492 140.822C27.1953 140.822 27.3887 140.729 27.541 140.529C27.9043 139.996 28.2734 139.803 28.8418 139.803C29.5625 139.803 30.002 140.178 30.002 140.828V141.273L28.3555 141.367C26.8438 141.461 25.9941 142.123 25.9941 143.225C25.9941 144.344 26.8672 145.1 28.0684 145.1ZM28.5137 143.998C27.8809 143.998 27.4531 143.676 27.4531 143.166C27.4531 142.674 27.8574 142.357 28.5605 142.311L30.002 142.223V142.697C30.002 143.447 29.334 143.998 28.5137 143.998ZM33.3477 145.117C33.7754 145.117 34.0801 144.842 34.0801 144.35V141.402C34.0801 140.512 34.6133 139.908 35.4512 139.908C36.2832 139.908 36.6934 140.4 36.6934 141.279V144.35C36.6934 144.842 36.998 145.117 37.4258 145.117C37.8535 145.117 38.1523 144.842 38.1523 144.35V140.986C38.1523 139.551 37.373 138.672 36.002 138.672C35.0469 138.672 34.4023 139.1 34.0684 139.838H34.0391V139.404C34.0391 138.953 33.7461 138.666 33.3184 138.666C32.8848 138.666 32.6211 138.953 32.6211 139.404V144.35C32.6211 144.842 32.9199 145.117 33.3477 145.117ZM40.1914 147.309C41.4336 147.309 42.0781 146.77 42.6406 145.223L44.6855 139.75C44.7383 139.609 44.7676 139.445 44.7676 139.328C44.7676 138.941 44.4746 138.666 44.0586 138.666C43.6895 138.666 43.4785 138.836 43.3555 139.234L41.873 143.758H41.8496L40.3672 139.24C40.2441 138.83 40.0391 138.666 39.6699 138.666C39.2422 138.666 38.9199 138.947 38.9199 139.346C38.9199 139.463 38.9492 139.615 39.002 139.762L41.0352 145.111L40.9297 145.416C40.7129 145.961 40.373 146.131 40.0449 146.131C39.9102 146.131 39.8516 146.125 39.7285 146.125C39.3887 146.125 39.1777 146.318 39.1777 146.617C39.1777 147.062 39.5352 147.309 40.1914 147.309ZM47.252 145.1C48.0547 145.1 48.834 144.684 49.1914 144.01H49.2207V144.443C49.2441 144.877 49.5195 145.117 49.918 145.117C50.3281 145.117 50.627 144.854 50.627 144.385V140.723C50.627 139.475 49.625 138.66 48.084 138.66C46.8945 138.66 45.9336 139.117 45.6172 139.838C45.5527 139.973 45.5176 140.102 45.5176 140.236C45.5176 140.588 45.7754 140.822 46.1328 140.822C46.3789 140.822 46.5723 140.729 46.7246 140.529C47.0879 139.996 47.457 139.803 48.0254 139.803C48.7461 139.803 49.1855 140.178 49.1855 140.828V141.273L47.5391 141.367C46.0273 141.461 45.1777 142.123 45.1777 143.225C45.1777 144.344 46.0508 145.1 47.252 145.1ZM47.6973 143.998C47.0645 143.998 46.6367 143.676 46.6367 143.166C46.6367 142.674 47.041 142.357 47.7441 142.311L49.1855 142.223V142.697C49.1855 143.447 48.5176 143.998 47.6973 143.998ZM55.1094 145.117C55.5781 145.117 55.8652 144.824 55.8652 144.332V141.818H57.5586L59.0645 144.572C59.2988 144.988 59.4746 145.117 59.832 145.117C60.2656 145.117 60.5938 144.824 60.5938 144.426C60.5938 144.25 60.5586 144.121 60.4297 143.904L59.0938 141.561C60.0723 141.18 60.6348 140.277 60.6348 139.176C60.6348 137.559 59.5391 136.545 57.7109 136.545H55.1094C54.6406 136.545 54.3535 136.838 54.3535 137.33V144.332C54.3535 144.824 54.6406 145.117 55.1094 145.117ZM55.8652 140.658V137.77H57.541C58.4961 137.77 59.0879 138.32 59.0879 139.211C59.0879 140.125 58.5312 140.658 57.5703 140.658H55.8652ZM64.4199 145.123C66.2422 145.123 67.4258 143.91 67.4258 141.895C67.4258 139.885 66.2305 138.66 64.4199 138.66C62.6094 138.66 61.4141 139.891 61.4141 141.895C61.4141 143.91 62.5977 145.123 64.4199 145.123ZM64.4199 143.969C63.4941 143.969 62.8965 143.219 62.8965 141.895C62.8965 140.576 63.5 139.82 64.4199 139.82C65.3457 139.82 65.9434 140.576 65.9434 141.895C65.9434 143.219 65.3457 143.969 64.4199 143.969ZM69.1133 145.117C69.5352 145.117 69.834 144.854 69.834 144.385V143.939H69.8633C70.2324 144.66 70.9297 145.1 71.8379 145.1C73.4141 145.1 74.4043 143.881 74.4043 141.895C74.4043 139.908 73.4082 138.684 71.8438 138.684C70.959 138.684 70.2559 139.129 69.8984 139.855H69.8633V137.195C69.8633 136.703 69.5645 136.428 69.1367 136.428C68.709 136.428 68.4043 136.703 68.4043 137.195V144.385C68.4043 144.859 68.6914 145.117 69.1133 145.117ZM71.3926 143.904C70.4902 143.904 69.8574 143.113 69.8574 141.895C69.8574 140.688 70.4902 139.885 71.3926 139.885C72.3242 139.885 72.9102 140.664 72.9102 141.895C72.9102 143.131 72.3242 143.904 71.3926 143.904ZM76.1094 137.916C76.5664 137.916 76.9238 137.564 76.9238 137.125C76.9238 136.68 76.5664 136.334 76.1094 136.334C75.6582 136.334 75.3008 136.68 75.3008 137.125C75.3008 137.564 75.6582 137.916 76.1094 137.916ZM76.1094 145.117C76.5547 145.117 76.8418 144.824 76.8418 144.35V139.439C76.8418 138.965 76.5547 138.666 76.1094 138.666C75.6641 138.666 75.3828 138.965 75.3828 139.434V144.35C75.3828 144.824 75.6641 145.117 76.1094 145.117ZM78.793 145.117C79.2207 145.117 79.5254 144.842 79.5254 144.35V141.402C79.5254 140.512 80.0586 139.908 80.8965 139.908C81.7285 139.908 82.1387 140.4 82.1387 141.279V144.35C82.1387 144.842 82.4434 145.117 82.8711 145.117C83.2988 145.117 83.5977 144.842 83.5977 144.35V140.986C83.5977 139.551 82.8184 138.672 81.4473 138.672C80.4922 138.672 79.8477 139.1 79.5137 139.838H79.4844V139.404C79.4844 138.953 79.1914 138.666 78.7637 138.666C78.3301 138.666 78.0664 138.953 78.0664 139.404V144.35C78.0664 144.842 78.3652 145.117 78.793 145.117ZM87.166 145.123C88.748 145.123 89.8145 144.344 89.8145 143.154C89.8145 142.234 89.293 141.76 87.9805 141.461L86.9902 141.244C86.3457 141.098 86.0762 140.852 86.0762 140.488C86.0762 140.043 86.5156 139.732 87.1543 139.732C87.7695 139.732 88.127 140.002 88.4141 140.43C88.5488 140.623 88.7598 140.699 88.9707 140.699C89.3398 140.699 89.5332 140.482 89.5332 140.178C89.5332 140.107 89.5215 140.037 89.5039 139.961C89.3105 139.246 88.3848 138.66 87.1895 138.66C85.6543 138.66 84.6582 139.416 84.6582 140.57C84.6582 141.473 85.2559 142.07 86.4688 142.346L87.4766 142.574C88.1152 142.721 88.3496 142.926 88.3496 143.301C88.3496 143.77 87.8984 144.057 87.2188 144.057C86.5215 144.057 86.1465 143.846 85.8184 143.371C85.6309 143.125 85.4258 143.014 85.1855 143.014C84.834 143.014 84.5762 143.236 84.5762 143.588C84.5762 143.676 84.5938 143.77 84.6348 143.875C84.9336 144.619 85.8535 145.123 87.166 145.123ZM93.4824 145.123C95.3047 145.123 96.4883 143.91 96.4883 141.895C96.4883 139.885 95.293 138.66 93.4824 138.66C91.6719 138.66 90.4766 139.891 90.4766 141.895C90.4766 143.91 91.6602 145.123 93.4824 145.123ZM93.4824 143.969C92.5566 143.969 91.959 143.219 91.959 141.895C91.959 140.576 92.5625 139.82 93.4824 139.82C94.4082 139.82 95.0059 140.576 95.0059 141.895C95.0059 143.219 94.4082 143.969 93.4824 143.969ZM98.1523 145.117C98.5801 145.117 98.8848 144.842 98.8848 144.35V141.402C98.8848 140.512 99.418 139.908 100.256 139.908C101.088 139.908 101.498 140.4 101.498 141.279V144.35C101.498 144.842 101.803 145.117 102.23 145.117C102.658 145.117 102.957 144.842 102.957 144.35V140.986C102.957 139.551 102.178 138.672 100.807 138.672C99.8516 138.672 99.207 139.1 98.873 139.838H98.8438V139.404C98.8438 138.953 98.5508 138.666 98.123 138.666C97.6895 138.666 97.4258 138.953 97.4258 139.404V144.35C97.4258 144.842 97.7246 145.117 98.1523 145.117Z" fill="white"/>
<path d="M23.584 124.117C24.873 124.117 25.791 123.59 26.2549 122.657C26.333 122.501 26.3721 122.369 26.3721 122.218C26.3721 121.988 26.2061 121.822 25.9717 121.822C25.7764 121.822 25.6543 121.915 25.5615 122.13C25.2295 122.921 24.5068 123.307 23.5889 123.307C22.1973 123.307 21.3135 122.203 21.3135 120.475C21.3135 118.761 22.207 117.647 23.584 117.647C24.4531 117.647 25.21 118.097 25.542 118.927C25.6396 119.176 25.791 119.293 26.0059 119.293C26.2451 119.293 26.4014 119.137 26.4014 118.893C26.4014 118.79 26.377 118.668 26.3281 118.546C25.9131 117.496 24.8682 116.837 23.584 116.837C21.6553 116.837 20.4102 118.263 20.4102 120.475C20.4102 122.706 21.6406 124.117 23.584 124.117ZM28.8965 124.088C29.5801 124.088 30.2295 123.707 30.5322 123.126H30.5518V123.658C30.5518 123.912 30.7178 124.088 30.957 124.088C31.1914 124.088 31.3574 123.912 31.3574 123.658V120.489C31.3574 119.479 30.6055 118.834 29.4141 118.834C28.5889 118.834 27.8467 119.2 27.5586 119.757C27.4902 119.879 27.4561 120.001 27.4561 120.108C27.4561 120.338 27.6123 120.489 27.832 120.489C27.9932 120.489 28.1055 120.426 28.1836 120.284C28.4668 119.781 28.8428 119.581 29.3945 119.581C30.0977 119.581 30.5078 119.952 30.5078 120.572V120.997L29.0479 121.08C27.876 121.148 27.207 121.695 27.207 122.564C27.207 123.478 27.8857 124.088 28.8965 124.088ZM29.0869 123.365C28.4766 123.365 28.0713 123.048 28.0713 122.564C28.0713 122.086 28.4619 121.783 29.1455 121.739L30.5078 121.656V122.071C30.5078 122.804 29.8877 123.365 29.0869 123.365ZM32.8613 124.088C33.1104 124.088 33.2861 123.902 33.2861 123.634V120.846C33.2861 120.196 33.6133 119.645 34.3799 119.645C34.5654 119.645 34.6973 119.61 34.7852 119.537C34.873 119.469 34.917 119.371 34.917 119.239C34.917 119.122 34.8828 119.024 34.8096 118.956C34.7266 118.878 34.5947 118.834 34.4092 118.834C33.9014 118.834 33.4033 119.225 33.2568 119.752H33.2373V119.264C33.2373 119.01 33.0713 118.834 32.8369 118.834C32.6025 118.834 32.4365 119.01 32.4365 119.264V123.634C32.4365 123.902 32.6123 124.088 32.8613 124.088ZM37.2021 124.088C37.998 124.088 38.5254 123.697 38.8037 123.092H38.8184V123.673C38.8184 123.922 39.0137 124.088 39.2529 124.088C39.4971 124.088 39.668 123.917 39.668 123.673V117.32C39.668 117.052 39.4922 116.866 39.2432 116.866C38.9941 116.866 38.8184 117.052 38.8184 117.32V119.747H38.7988C38.4961 119.19 37.9102 118.834 37.1826 118.834C35.9033 118.834 35.0293 119.869 35.0293 121.461C35.0293 123.053 35.9082 124.088 37.2021 124.088ZM37.3633 123.341C36.4648 123.341 35.8984 122.613 35.8984 121.461C35.8984 120.313 36.4648 119.581 37.3633 119.581C38.2373 119.581 38.8232 120.328 38.8232 121.461C38.8232 122.599 38.2373 123.341 37.3633 123.341ZM41.2842 124.088C41.5332 124.088 41.709 123.902 41.709 123.634V121.041C41.709 120.162 42.2314 119.586 43.0762 119.586C43.8721 119.586 44.2773 120.069 44.2773 120.875V123.634C44.2773 123.902 44.4531 124.088 44.7021 124.088C44.9512 124.088 45.127 123.902 45.127 123.634V120.719C45.127 119.586 44.4531 118.834 43.3398 118.834C42.5684 118.834 42.0117 119.166 41.7285 119.732H41.709V117.311C41.709 117.047 41.543 116.866 41.2842 116.866C41.0303 116.866 40.8594 117.047 40.8594 117.311V123.634C40.8594 123.902 41.0352 124.088 41.2842 124.088ZM48.3105 124.088C49.7119 124.088 50.6592 123.077 50.6592 121.461C50.6592 119.84 49.7119 118.834 48.3105 118.834C46.9043 118.834 45.957 119.84 45.957 121.461C45.957 123.077 46.9043 124.088 48.3105 124.088ZM48.3105 123.341C47.4121 123.341 46.8213 122.657 46.8213 121.461C46.8213 120.265 47.4121 119.581 48.3105 119.581C49.209 119.581 49.7949 120.265 49.7949 121.461C49.7949 122.657 49.209 123.341 48.3105 123.341ZM51.9873 124.088C52.2363 124.088 52.4121 123.902 52.4121 123.634V117.32C52.4121 117.052 52.2363 116.866 51.9873 116.866C51.7383 116.866 51.5625 117.052 51.5625 117.32V123.634C51.5625 123.902 51.7383 124.088 51.9873 124.088ZM55.4834 124.088C56.2793 124.088 56.8066 123.697 57.085 123.092H57.0996V123.673C57.0996 123.922 57.2949 124.088 57.5342 124.088C57.7783 124.088 57.9492 123.917 57.9492 123.673V117.32C57.9492 117.052 57.7734 116.866 57.5244 116.866C57.2754 116.866 57.0996 117.052 57.0996 117.32V119.747H57.0801C56.7773 119.19 56.1914 118.834 55.4639 118.834C54.1846 118.834 53.3105 119.869 53.3105 121.461C53.3105 123.053 54.1895 124.088 55.4834 124.088ZM55.6445 123.341C54.7461 123.341 54.1797 122.613 54.1797 121.461C54.1797 120.313 54.7461 119.581 55.6445 119.581C56.5186 119.581 57.1045 120.328 57.1045 121.461C57.1045 122.599 56.5186 123.341 55.6445 123.341ZM61.2256 124.088C62.1533 124.088 62.8662 123.697 63.1934 123.009C63.2324 122.916 63.2568 122.828 63.2568 122.76C63.2568 122.535 63.1055 122.389 62.8809 122.389C62.749 122.389 62.6514 122.438 62.5635 122.56C62.168 123.136 61.7969 123.351 61.1914 123.351C60.2832 123.351 59.7217 122.716 59.7217 121.69H62.8955C63.1885 121.69 63.3643 121.505 63.3643 121.197C63.3643 119.806 62.4512 118.834 61.1523 118.834C59.751 118.834 58.8477 119.879 58.8477 121.48C58.8477 123.121 59.7266 124.088 61.2256 124.088ZM59.7266 121.026C59.7803 120.152 60.3467 119.571 61.1377 119.571C61.9238 119.571 62.4658 120.147 62.4854 121.026H59.7266ZM64.6484 124.088C64.8975 124.088 65.0732 123.902 65.0732 123.634V120.846C65.0732 120.196 65.4004 119.645 66.167 119.645C66.3525 119.645 66.4844 119.61 66.5723 119.537C66.6602 119.469 66.7041 119.371 66.7041 119.239C66.7041 119.122 66.6699 119.024 66.5967 118.956C66.5137 118.878 66.3818 118.834 66.1963 118.834C65.6885 118.834 65.1904 119.225 65.0439 119.752H65.0244V119.264C65.0244 119.01 64.8584 118.834 64.624 118.834C64.3896 118.834 64.2236 119.01 64.2236 119.264V123.634C64.2236 123.902 64.3994 124.088 64.6484 124.088Z" fill="white"/>
<path d="M24.4609 84.1406C24.8594 84.1406 25.1406 83.8438 25.1406 83.4141V73.375C25.1406 72.8828 24.8438 72.5859 24.3594 72.5859C24.0391 72.5859 23.8516 72.6641 23.4141 72.9766L21 74.7031C20.7031 74.9141 20.6094 75.0781 20.6094 75.3281C20.6094 75.6719 20.8359 75.9062 21.1641 75.9062C21.3359 75.9062 21.4844 75.8516 21.6406 75.7422L23.75 74.2656H23.7812V83.4141C23.7812 83.8438 24.0625 84.1406 24.4609 84.1406ZM28.6484 84H34.8594C35.2578 84 35.5234 83.75 35.5234 83.375C35.5234 83 35.2578 82.75 34.8594 82.75H29.9375V82.7188L32.7656 79.8125C34.6953 77.8359 35.2578 76.9062 35.2578 75.6719C35.2578 73.8516 33.7891 72.5391 31.7578 72.5391C29.4531 72.5391 28.2109 74.0391 28.0469 75.1953C28.0312 75.2891 28.0234 75.375 28.0234 75.4766C28.0234 75.8438 28.2578 76.1016 28.6719 76.1016C29.0547 76.1016 29.2109 75.8984 29.3047 75.6094C29.6875 74.3984 30.5391 73.7656 31.7578 73.7656C32.9688 73.7656 33.8516 74.6094 33.8516 75.7578C33.8516 76.7031 33.4922 77.3047 31.9766 78.8906L28.3672 82.6562C28.0312 83.0078 27.9688 83.1328 27.9688 83.4219C27.9688 83.7734 28.2344 84 28.6484 84ZM40.8672 84.1875C43.0781 84.1875 44.7812 82.8359 44.7812 80.8984C44.7812 79.2969 43.6641 78.2734 42.0234 78.1328V78.1016C43.4375 77.8047 44.4141 76.8438 44.4141 75.4453C44.4141 73.8359 43.1094 72.5391 40.8516 72.5391C39.2891 72.5391 38.0938 73.1875 37.5 74.3125C37.3359 74.6172 37.2656 74.8984 37.2656 75.2188C37.2656 75.625 37.4922 75.8594 37.8906 75.8594C38.2422 75.8594 38.3828 75.7109 38.5234 75.3047C38.9297 74.2812 39.6094 73.7578 40.8516 73.7578C42.2969 73.7578 43 74.5156 43 75.6328C43 76.7578 42.0625 77.5859 40.7188 77.5859H39.8828C39.5078 77.5859 39.25 77.8281 39.25 78.1797C39.25 78.5312 39.5078 78.7734 39.8828 78.7734H40.7812C42.3672 78.7734 43.3594 79.5547 43.3516 80.9453C43.3438 82.125 42.3516 82.9688 40.8672 82.9688C39.5078 82.9688 38.7031 82.3984 38.3281 81.4297C38.1797 81.0469 38 80.875 37.6797 80.875C37.2734 80.875 37.0312 81.1406 37.0312 81.5312C37.0312 81.8359 37.1094 82.1172 37.2891 82.4297C37.9688 83.5859 39.1875 84.1875 40.8672 84.1875ZM52.5781 84.1406C52.9766 84.1406 53.2578 83.8438 53.2578 83.4141V81.6562H54.2891C54.6641 81.6562 54.9453 81.4141 54.9453 81.0391C54.9453 80.6641 54.6641 80.4219 54.2891 80.4219H53.2578V73.6953C53.2578 72.9688 52.8594 72.5859 52.1094 72.5859C51.4922 72.5859 51.125 72.8594 50.4922 73.7734C48.9062 76.0469 47.3516 78.3438 46.5391 79.7969C46.2812 80.2578 46.2031 80.5 46.2031 80.8594C46.2031 81.3438 46.5156 81.6562 47.0156 81.6562H51.8984V83.4141C51.8984 83.8438 52.1797 84.1406 52.5781 84.1406ZM51.8984 80.4219H47.6094V80.3906C48.5234 78.7891 49.7891 76.9297 51.875 73.9453H51.8984V80.4219ZM66.6484 84.1875C69.0078 84.1875 70.6641 82.5859 70.6641 80.3125C70.6641 78.1406 69.1172 76.6016 66.9375 76.6016C65.8359 76.6016 64.9062 76.9922 64.3984 77.6797H64.3672L64.7266 73.9766H69.4453C69.8438 73.9766 70.1094 73.7266 70.1094 73.3516C70.1094 72.9766 69.8438 72.7266 69.4453 72.7266H64.7344C63.9062 72.7266 63.5391 73.0391 63.4688 73.8281L63.0703 78.2969C63.0625 78.3672 63.0625 78.4141 63.0625 78.4766C63.0625 78.8828 63.3047 79.2031 63.7422 79.2031C64.0938 79.2031 64.2109 79.1328 64.7109 78.6016C65.1797 78.1016 65.8984 77.8125 66.6719 77.8125C68.1797 77.8125 69.2578 78.8672 69.2578 80.3516C69.2578 81.8828 68.1953 82.9531 66.6797 82.9531C65.4531 82.9531 64.5703 82.3359 64.2266 81.2422C64.1016 80.8438 63.9141 80.6875 63.5703 80.6875C63.1719 80.6875 62.9141 80.9453 62.9141 81.3438C62.9141 81.6328 62.9766 81.8516 63.0781 82.0938C63.6094 83.3672 65 84.1875 66.6484 84.1875ZM76.2109 84.1953C78.5234 84.1953 80.2031 82.5703 80.2031 80.3438C80.2031 78.2031 78.6094 76.6172 76.4609 76.6172C74.9297 76.6172 73.7734 77.4297 73.3125 78.4453H73.2891V78.3438C73.3594 75.4062 74.4297 73.7734 76.2891 73.7734C77.2344 73.7734 77.9297 74.1719 78.4688 75.0234C78.7188 75.4219 78.9141 75.5703 79.1953 75.5703C79.5703 75.5703 79.8438 75.3203 79.8438 74.9688C79.8438 74.7422 79.7812 74.5469 79.6406 74.3047C79.0078 73.2031 77.75 72.5312 76.3047 72.5312C73.5469 72.5312 71.9297 74.7578 71.9297 78.5547C71.9297 79.7734 72.1094 80.7891 72.4844 81.6562C73.1797 83.2812 74.5234 84.1953 76.2109 84.1953ZM76.1953 82.9453C74.75 82.9453 73.625 81.7969 73.625 80.3516C73.625 78.9141 74.7266 77.8516 76.2188 77.8516C77.7109 77.8516 78.7734 78.9141 78.7734 80.3906C78.7734 81.8125 77.6328 82.9453 76.1953 82.9453ZM83.2578 84.1406C83.5625 84.1406 83.7422 84.0234 83.8906 83.7344L88.6328 74.4766C88.8438 74.0625 88.9375 73.8438 88.9375 73.5781C88.9375 73.0391 88.6172 72.7266 88.0547 72.7266H81.9922C81.6094 72.7266 81.3281 72.9688 81.3281 73.3516C81.3281 73.7344 81.6094 73.9766 81.9922 73.9766H87.4688V74.0078L82.7344 83.1094C82.6406 83.2891 82.6094 83.4062 82.6094 83.5625C82.6094 83.9141 82.875 84.1406 83.2578 84.1406ZM94.3359 84.1875C96.7266 84.1875 98.4297 82.8438 98.4297 80.9531C98.4297 79.5547 97.4609 78.3984 96 78.0547V78.0234C97.25 77.625 98.0078 76.6797 98.0078 75.5078C98.0078 73.7891 96.4688 72.5391 94.3359 72.5391C92.2188 72.5391 90.6562 73.7969 90.6562 75.5C90.6562 76.6875 91.4297 77.6406 92.6719 78.0234V78.0547C91.2188 78.3906 90.25 79.5469 90.25 80.9531C90.25 82.8359 91.9531 84.1875 94.3359 84.1875ZM94.3359 77.5C92.9922 77.5 92.0547 76.7266 92.0547 75.6328C92.0547 74.5312 92.9922 73.75 94.3359 73.75C95.6797 73.75 96.6172 74.5234 96.6172 75.6328C96.6172 76.7266 95.6719 77.5 94.3359 77.5ZM94.3359 82.9609C92.7891 82.9609 91.6797 82.0781 91.6797 80.8516C91.6797 79.6172 92.7891 78.7344 94.3359 78.7344C95.8906 78.7344 96.9922 79.6094 96.9922 80.8516C96.9922 82.0781 95.8906 82.9609 94.3359 82.9609ZM110.203 84.1875C112.961 84.1875 114.57 81.9688 114.57 78.1719C114.57 76.9453 114.391 75.9297 114.016 75.0625C113.328 73.4453 111.984 72.5312 110.289 72.5312C107.977 72.5312 106.297 74.1562 106.297 76.3828C106.297 78.5234 107.891 80.1094 110.039 80.1094C111.477 80.1094 112.711 79.3828 113.188 78.2656H113.211V78.3984C113.141 81.3047 112.102 82.9609 110.219 82.9609C109.125 82.9609 108.516 82.5469 107.977 81.6953C107.727 81.2891 107.531 81.1484 107.234 81.1484C106.852 81.1484 106.602 81.3906 106.602 81.75C106.602 81.9531 106.656 82.1406 106.789 82.3828C107.234 83.2188 108.406 84.1875 110.203 84.1875ZM110.281 78.875C108.805 78.875 107.719 77.8047 107.719 76.3359C107.719 74.9219 108.859 73.7969 110.305 73.7969C111.758 73.7969 112.883 74.9297 112.883 76.375C112.883 77.8125 111.773 78.875 110.281 78.875ZM119.586 84.1406C119.984 84.1406 120.266 83.8438 120.266 83.4141V73.375C120.266 72.8828 119.969 72.5859 119.484 72.5859C119.164 72.5859 118.977 72.6641 118.539 72.9766L116.125 74.7031C115.828 74.9141 115.734 75.0781 115.734 75.3281C115.734 75.6719 115.961 75.9062 116.289 75.9062C116.461 75.9062 116.609 75.8516 116.766 75.7422L118.875 74.2656H118.906V83.4141C118.906 83.8438 119.188 84.1406 119.586 84.1406ZM123.773 84H129.984C130.383 84 130.648 83.75 130.648 83.375C130.648 83 130.383 82.75 129.984 82.75H125.062V82.7188L127.891 79.8125C129.82 77.8359 130.383 76.9062 130.383 75.6719C130.383 73.8516 128.914 72.5391 126.883 72.5391C124.578 72.5391 123.336 74.0391 123.172 75.1953C123.156 75.2891 123.148 75.375 123.148 75.4766C123.148 75.8438 123.383 76.1016 123.797 76.1016C124.18 76.1016 124.336 75.8984 124.43 75.6094C124.812 74.3984 125.664 73.7656 126.883 73.7656C128.094 73.7656 128.977 74.6094 128.977 75.7578C128.977 76.7031 128.617 77.3047 127.102 78.8906L123.492 82.6562C123.156 83.0078 123.094 83.1328 123.094 83.4219C123.094 83.7734 123.359 84 123.773 84ZM135.992 84.1875C138.203 84.1875 139.906 82.8359 139.906 80.8984C139.906 79.2969 138.789 78.2734 137.148 78.1328V78.1016C138.562 77.8047 139.539 76.8438 139.539 75.4453C139.539 73.8359 138.234 72.5391 135.977 72.5391C134.414 72.5391 133.219 73.1875 132.625 74.3125C132.461 74.6172 132.391 74.8984 132.391 75.2188C132.391 75.625 132.617 75.8594 133.016 75.8594C133.367 75.8594 133.508 75.7109 133.648 75.3047C134.055 74.2812 134.734 73.7578 135.977 73.7578C137.422 73.7578 138.125 74.5156 138.125 75.6328C138.125 76.7578 137.188 77.5859 135.844 77.5859H135.008C134.633 77.5859 134.375 77.8281 134.375 78.1797C134.375 78.5312 134.633 78.7734 135.008 78.7734H135.906C137.492 78.7734 138.484 79.5547 138.477 80.9453C138.469 82.125 137.477 82.9688 135.992 82.9688C134.633 82.9688 133.828 82.3984 133.453 81.4297C133.305 81.0469 133.125 80.875 132.805 80.875C132.398 80.875 132.156 81.1406 132.156 81.5312C132.156 81.8359 132.234 82.1172 132.414 82.4297C133.094 83.5859 134.312 84.1875 135.992 84.1875ZM154.266 84.1406C154.664 84.1406 154.945 83.8438 154.945 83.4141V81.6562H155.977C156.352 81.6562 156.633 81.4141 156.633 81.0391C156.633 80.6641 156.352 80.4219 155.977 80.4219H154.945V73.6953C154.945 72.9688 154.547 72.5859 153.797 72.5859C153.18 72.5859 152.812 72.8594 152.18 73.7734C150.594 76.0469 149.039 78.3438 148.227 79.7969C147.969 80.2578 147.891 80.5 147.891 80.8594C147.891 81.3438 148.203 81.6562 148.703 81.6562H153.586V83.4141C153.586 83.8438 153.867 84.1406 154.266 84.1406ZM153.586 80.4219H149.297V80.3906C150.211 78.7891 151.477 76.9297 153.562 73.9453H153.586V80.4219ZM161.773 84.1875C164.133 84.1875 165.789 82.5859 165.789 80.3125C165.789 78.1406 164.242 76.6016 162.062 76.6016C160.961 76.6016 160.031 76.9922 159.523 77.6797H159.492L159.852 73.9766H164.57C164.969 73.9766 165.234 73.7266 165.234 73.3516C165.234 72.9766 164.969 72.7266 164.57 72.7266H159.859C159.031 72.7266 158.664 73.0391 158.594 73.8281L158.195 78.2969C158.188 78.3672 158.188 78.4141 158.188 78.4766C158.188 78.8828 158.43 79.2031 158.867 79.2031C159.219 79.2031 159.336 79.1328 159.836 78.6016C160.305 78.1016 161.023 77.8125 161.797 77.8125C163.305 77.8125 164.383 78.8672 164.383 80.3516C164.383 81.8828 163.32 82.9531 161.805 82.9531C160.578 82.9531 159.695 82.3359 159.352 81.2422C159.227 80.8438 159.039 80.6875 158.695 80.6875C158.297 80.6875 158.039 80.9453 158.039 81.3438C158.039 81.6328 158.102 81.8516 158.203 82.0938C158.734 83.3672 160.125 84.1875 161.773 84.1875ZM171.336 84.1953C173.648 84.1953 175.328 82.5703 175.328 80.3438C175.328 78.2031 173.734 76.6172 171.586 76.6172C170.055 76.6172 168.898 77.4297 168.438 78.4453H168.414V78.3438C168.484 75.4062 169.555 73.7734 171.414 73.7734C172.359 73.7734 173.055 74.1719 173.594 75.0234C173.844 75.4219 174.039 75.5703 174.32 75.5703C174.695 75.5703 174.969 75.3203 174.969 74.9688C174.969 74.7422 174.906 74.5469 174.766 74.3047C174.133 73.2031 172.875 72.5312 171.43 72.5312C168.672 72.5312 167.055 74.7578 167.055 78.5547C167.055 79.7734 167.234 80.7891 167.609 81.6562C168.305 83.2812 169.648 84.1953 171.336 84.1953ZM171.32 82.9453C169.875 82.9453 168.75 81.7969 168.75 80.3516C168.75 78.9141 169.852 77.8516 171.344 77.8516C172.836 77.8516 173.898 78.9141 173.898 80.3906C173.898 81.8125 172.758 82.9453 171.32 82.9453ZM178.383 84.1406C178.688 84.1406 178.867 84.0234 179.016 83.7344L183.758 74.4766C183.969 74.0625 184.062 73.8438 184.062 73.5781C184.062 73.0391 183.742 72.7266 183.18 72.7266H177.117C176.734 72.7266 176.453 72.9688 176.453 73.3516C176.453 73.7344 176.734 73.9766 177.117 73.9766H182.594V74.0078L177.859 83.1094C177.766 83.2891 177.734 83.4062 177.734 83.5625C177.734 83.9141 178 84.1406 178.383 84.1406Z" fill="white"/>
<path fill-rule="evenodd" clip-rule="evenodd" d="M248.619 18.317C248.601 19.762 249.907 20.569 250.891 21.049C251.902 21.541 252.242 21.857 252.238 22.297C252.23 22.971 251.431 23.268 250.683 23.279C249.755 23.2993 248.837 23.081 248.017 22.645L247.547 24.845C248.467 25.2034 249.447 25.3842 250.434 25.378C253.161 25.378 254.945 24.032 254.955 21.945C254.962 20.3589 253.647 19.6683 252.596 19.1164C251.892 18.7466 251.306 18.439 251.316 17.966C251.325 17.607 251.667 17.224 252.416 17.126C253.294 17.0418 254.179 17.197 254.976 17.575L255.432 15.447C254.655 15.1546 253.832 15.0035 253.002 15.001C250.435 15.001 248.63 16.365 248.615 18.319L248.619 18.317ZM259.815 15.185C259.333 15.1831 258.897 15.4743 258.715 15.921L254.815 25.221H257.54L258.082 23.721H261.412L261.727 25.221H264.127L262.027 15.184H259.822L259.815 15.185ZM260.989 21.668L260.203 17.896L260.2 17.894L258.835 21.668H260.989ZM245.315 15.183L243.167 25.22H245.767L247.914 15.183H245.315ZM238.773 22.015L241.473 15.183H241.474H244.2L239.994 25.22H237.25L235.179 17.21C235.141 16.8286 234.907 16.4944 234.562 16.328C233.747 15.9373 232.886 15.6504 232 15.474L232.062 15.183H236.478C237.076 15.1807 237.586 15.6154 237.678 16.206L238.773 22.015Z" fill="white"/>
<rect x="21" y="33" width="33" height="24" rx="5" fill="#F0C753"/>
<rect x="44" y="58" width="12" height="26" rx="3" transform="rotate(180 44 58)" fill="#F7CB6B"/>
<rect x="43.5" y="57.5" width="11" height="25" rx="2.5" transform="rotate(180 43.5 57.5)" stroke="#208CE0"/>
<path d="M23 50C21.3431 50 20 48.6569 20 47V43C20 41.3431 21.3431 40 23 40H32C33.6569 40 35 41.3431 35 43V47C35 48.6569 33.6569 50 32 50H23Z" fill="#F7CB6B"/>
<path fill-rule="evenodd" clip-rule="evenodd" d="M20.5 49V41C20.5 40.7239 20.7239 40.5 21 40.5H32C33.3807 40.5 34.5 41.6193 34.5 43V47C34.5 47.663 34.2366 48.2989 33.7678 48.7678C33.2989 49.2366 32.663 49.5 32 49.5H21C20.7239 49.5 20.5 49.2761 20.5 49Z" stroke="#208CE0"/>
<path d="M54 40C54.5523 40 55 40.4477 55 41V49C55 49.5523 54.5523 50 54 50H43C41.3431 50 40 48.6569 40 47V43C40 41.3431 41.3431 40 43 40H54Z" fill="#F7CB6B"/>
<path fill-rule="evenodd" clip-rule="evenodd" d="M54.5 41V49C54.5 49.2761 54.2761 49.5 54 49.5H43C41.6193 49.5 40.5 48.3807 40.5 47V43C40.5 42.337 40.7634 41.7011 41.2322 41.2322C41.7011 40.7634 42.337 40.5 43 40.5H54C54.2761 40.5 54.5 40.7239 54.5 41Z" stroke="#208CE0"/>
</g>
<defs>
<linearGradient id="paint0_linear_1_599" x1="-6.80857" y1="176.211" x2="277.021" y2="198.946" gradientUnits="userSpaceOnUse">
<stop stop-color="#1A87DD"/>
<stop offset="1" stop-color="#45A7F5"/>
</linearGradient>
<clipPath id="clip0_1_599">
<rect width="285" height="170" fill="white"/>
</clipPath>
</defs>
</svg>
