<svg width="20" height="15" viewBox="0 0 20 15" fill="none" xmlns="http://www.w3.org/2000/svg">
<path fill-rule="evenodd" clip-rule="evenodd" d="M9.97059 7.69412C10.4418 7.28647 10.8194 6.78265 11.0779 6.21618C11.3365 5.64971 11.4706 5.03471 11.4706 4.41176C11.4706 3.24176 11.0056 2.11941 10.1788 1.29176C9.35118 0.465 8.22882 0 7.05882 0C5.88882 0 4.76647 0.465 3.93882 1.29176C3.11206 2.11941 2.64706 3.24176 2.64706 4.41176C2.64706 5.03471 2.78118 5.64971 3.03971 6.21618C3.29824 6.78265 3.67588 7.28647 4.14706 7.69412C2.91176 8.25353 1.86353 9.15706 1.12853 10.2962C0.392647 11.4353 0.000882353 12.7615 0 14.1176C0 14.3515 0.0926471 14.5765 0.258529 14.7415C0.423529 14.9074 0.648529 15 0.882353 15C1.11618 15 1.34118 14.9074 1.50618 14.7415C1.67206 14.5765 1.76471 14.3515 1.76471 14.1176C1.76471 12.7138 2.32235 11.3674 3.315 10.3738C4.30853 9.38118 5.655 8.82353 7.05882 8.82353C8.46265 8.82353 9.80912 9.38118 10.8026 10.3738C11.7953 11.3674 12.3529 12.7138 12.3529 14.1176C12.3529 14.3515 12.4456 14.5765 12.6115 14.7415C12.7765 14.9074 13.0015 15 13.2353 15C13.4691 15 13.6941 14.9074 13.8591 14.7415C14.025 14.5765 14.1176 14.3515 14.1176 14.1176C14.1168 12.7615 13.725 11.4353 12.9891 10.2962C12.2541 9.15706 11.2059 8.25353 9.97059 7.69412ZM7.05882 7.05882C6.53559 7.05882 6.02382 6.90353 5.58794 6.61235C5.15294 6.32206 4.81324 5.90824 4.61294 5.42471C4.41265 4.94118 4.36059 4.40912 4.46294 3.89559C4.56441 3.38206 4.81676 2.91 5.18735 2.54029C5.55706 2.16971 6.02912 1.91735 6.54265 1.81588C7.05618 1.71353 7.58824 1.76559 8.07176 1.96588C8.55529 2.16618 8.96912 2.50588 9.25941 2.94088C9.55059 3.37676 9.70588 3.88853 9.70588 4.41176C9.70588 5.11412 9.42706 5.78735 8.93029 6.28324C8.43441 6.78 7.76118 7.05882 7.05882 7.05882ZM16.7153 5.07882C16.5865 5.91971 16.2176 6.705 15.6529 7.34118C16.8009 8.05853 17.7468 9.05824 18.3997 10.2441C19.0535 11.43 19.3924 12.7632 19.3853 14.1176C19.3853 14.3515 19.2926 14.5765 19.1268 14.7415C18.9618 14.9074 18.7368 15 18.5029 15C18.2691 15 18.0441 14.9074 17.8791 14.7415C17.7132 14.5765 17.6206 14.3515 17.6206 14.1176C17.6303 12.9406 17.3029 11.7856 16.6774 10.7876C16.0518 9.79059 15.1544 8.99294 14.0912 8.48824L13.9765 8.42647L13.6324 8.19706C13.5071 8.115 13.4047 8.00206 13.3359 7.86882C13.2662 7.73647 13.2318 7.58824 13.2353 7.43824C13.2388 7.28735 13.2821 7.14 13.3588 7.01029C13.4365 6.88059 13.5459 6.77294 13.6765 6.69706C14.0779 6.465 14.4115 6.13235 14.6435 5.73088C14.8756 5.33029 14.9991 4.875 15 4.41176C15 3.70941 14.7212 3.03618 14.2244 2.54029C13.7285 2.04353 13.0553 1.76471 12.3529 1.76471C12.1191 1.76471 11.8941 1.67206 11.7291 1.50618C11.5632 1.34118 11.4706 1.11618 11.4706 0.882353C11.4706 0.648529 11.5632 0.423529 11.7291 0.258529C11.8941 0.0926471 12.1191 0 12.3529 0C13.2035 0 14.0356 0.245294 14.7494 0.706765C15.4641 1.16912 16.0297 1.82735 16.3782 2.60294C16.7268 3.37853 16.8441 4.23882 16.7153 5.07882Z" fill="#1A1A1A"/>
</svg>
