<svg width="375" height="280" viewBox="0 0 375 280" fill="none" xmlns="http://www.w3.org/2000/svg">
<g id="illustration">
<g id="freepik--background-complete--inject-242">
<rect id="Rectangle" y="245.55" width="375" height="0.1875" fill="#EBEBEB"/>
<rect id="Rectangle_2" x="312.585" y="257.617" width="24.84" height="0.1875" fill="#EBEBEB"/>
<rect id="Rectangle_3" x="241.898" y="259.657" width="6.5175" height="0.1875" fill="#EBEBEB"/>
<rect id="Rectangle_4" x="297.443" y="250.657" width="14.3925" height="0.1875" fill="#EBEBEB"/>
<rect id="Rectangle_5" x="39.345" y="251.917" width="32.3925" height="0.1875" fill="#EBEBEB"/>
<rect id="Rectangle_6" x="78.42" y="251.917" width="4.7475" height="0.1875" fill="#EBEBEB"/>
<rect id="Rectangle_7" x="98.6025" y="255.083" width="70.26" height="0.1875" fill="#EBEBEB"/>
<path id="Shape" fill-rule="evenodd" clip-rule="evenodd" d="M32.9325 212.1H177.75C180.115 212.1 182.033 210.183 182.033 207.818V4.2825C182.033 1.91734 180.115 0 177.75 0H32.9325C30.5848 0.00402153 28.6781 1.89742 28.6575 4.245V207.818C28.6575 210.18 30.5703 212.096 32.9325 212.1ZM28.845 4.245C28.845 1.98632 30.6738 0.154137 32.9325 0.15H177.75C180.01 0.154128 181.841 1.98511 181.845 4.245V207.817C181.841 210.077 180.01 211.908 177.75 211.912H32.9325C30.6738 211.908 28.845 210.076 28.845 207.817V4.245Z" fill="#EBEBEB"/>
<path id="Shape_2" fill-rule="evenodd" clip-rule="evenodd" d="M195.157 212.1H339.982C342.342 212.092 344.25 210.177 344.25 207.818V4.245C344.229 1.90033 342.327 0.00812303 339.982 0H195.157C192.809 0.00397731 190.9 1.89621 190.875 4.245V207.818C190.879 210.181 192.794 212.096 195.157 212.1ZM191.062 4.245C191.067 1.98511 192.898 0.154128 195.157 0.15H339.982C342.242 0.154128 344.073 1.98511 344.077 4.245V207.817C344.073 210.077 342.242 211.908 339.982 211.912H195.157C192.898 211.908 191.067 210.077 191.062 207.817V4.245Z" fill="#EBEBEB"/>
<rect id="Rectangle_8" x="215.43" y="245.55" width="21.6675" height="77.19" transform="rotate(180 215.43 245.55)" fill="#E6E6E6"/>
<path id="Path" d="M197.873 245.55H193.755V238.395H202.185L197.873 245.55Z" fill="#F0F0F0"/>
<rect id="Rectangle_9" x="339.052" y="245.55" width="21.6675" height="77.19" transform="rotate(180 339.052 245.55)" fill="#E6E6E6"/>
<rect id="Rectangle_10" x="320.978" y="243.667" width="127.215" height="75.315" transform="rotate(180 320.978 243.667)" fill="#F0F0F0"/>
<path id="Rectangle_11" d="M279.03 239.49V172.83H316.74V239.49H279.03Z" fill="#E6E6E6"/>
<path id="Path_2" d="M294.157 176.655H301.612C304.975 176.596 308.129 175.012 310.185 172.35H285.585C287.643 175.009 290.795 176.593 294.157 176.655Z" fill="#F0F0F0"/>
<path id="Rectangle_12" d="M238.508 239.498L238.508 172.838H276.218V239.498H238.508Z" fill="#E6E6E6"/>
<path id="Path_3" d="M253.252 176.655H260.715C264.065 176.585 267.202 175.002 269.25 172.35H244.688C246.742 175.01 249.892 176.594 253.252 176.655Z" fill="#F0F0F0"/>
<path id="Rectangle_13" d="M197.985 239.498V172.838H235.695V239.498H197.985Z" fill="#E6E6E6"/>
<path id="Path_4" d="M212.73 176.655H220.192C223.55 176.591 226.697 175.008 228.75 172.35H204.165C206.219 175.01 209.37 176.594 212.73 176.655Z" fill="#F0F0F0"/>
<path id="Path_5" d="M316.86 245.55H320.97V238.395H312.54L316.86 245.55Z" fill="#F0F0F0"/>
<rect id="Rectangle_14" x="202.86" y="148.29" width="145.372" height="123.772" transform="rotate(180 202.86 148.29)" fill="#E6E6E6"/>
<rect id="Rectangle_15" x="201.435" y="148.29" width="147.217" height="123.772" transform="rotate(180 201.435 148.29)" fill="#F5F5F5"/>
<path id="Rectangle_16" d="M195.562 30.4575V142.35H60.09V30.4575L195.562 30.4575Z" fill="#FAFAFA"/>
<path id="Path_6" d="M178.943 142.35L125.625 30.4575H107.513L160.83 142.35H178.943Z" fill="white"/>
<path id="Path_7" d="M155.7 142.35L102.375 30.4575H89.91L143.228 142.35H155.7Z" fill="white"/>
<path id="Rectangle_17" d="M110.4 30.45V142.342H103.395V30.45H110.4Z" fill="#E6E6E6"/>
<path id="Rectangle_18" d="M156.96 30.45V142.342H149.955V30.45H156.96Z" fill="#E6E6E6"/>
<path id="Rectangle_19" d="M109.133 26.04L109.133 146.123H100.275V26.04H109.133Z" fill="#F5F5F5"/>
<path id="Rectangle_20" d="M155.693 26.04V146.123H146.835V26.04H155.693Z" fill="#F5F5F5"/>
<path id="Rectangle_21" d="M60.7125 30.4575L60.7125 142.35H60.09L60.09 30.4575H60.7125Z" fill="#E6E6E6"/>
<path id="Path_8" d="M51.75 16.875H209.25C209.664 16.875 210 17.2108 210 17.625C210 18.0392 209.664 18.375 209.25 18.375H51.75C51.3358 18.375 51 18.0392 51 17.625C51 17.2108 51.3358 16.875 51.75 16.875Z" fill="#E6E6E6"/>
<path id="Path_9" d="M202.86 21.8774C203.425 21.8733 203.88 21.4145 203.88 20.8499V18.6524C203.88 18.0891 203.423 17.6324 202.86 17.6324C202.295 17.6324 201.837 18.0879 201.833 18.6524V20.8499C201.837 21.4157 202.294 21.8734 202.86 21.8774Z" fill="#E6E6E6"/>
<path id="Path_10" d="M63.1725 21.8774C63.7383 21.8734 64.1959 21.4157 64.2 20.8499V18.6524C64.1959 18.0879 63.7371 17.6324 63.1725 17.6324C62.6092 17.6324 62.1525 18.0891 62.1525 18.6524V20.8499C62.1525 21.4145 62.608 21.8733 63.1725 21.8774Z" fill="#E6E6E6"/>
<rect id="Rectangle_22" opacity="0.6" x="199.102" y="79.0649" width="147.113" height="61.4325" transform="rotate(180 199.102 79.0649)" fill="#E0E0E0"/>
<rect id="Rectangle_23" x="57.7875" y="245.55" width="3.78" height="61.98" transform="rotate(180 57.7875 245.55)" fill="#E6E6E6"/>
<rect id="Rectangle_24" x="122.212" y="171.502" width="20.4675" height="12.06" fill="#E6E6E6"/>
<rect id="Rectangle_25" x="122.212" y="183.57" width="81.2925" height="12.06" transform="rotate(180 122.212 183.57)" fill="#F5F5F5"/>
<rect id="Rectangle_26" x="122.212" y="191.062" width="20.4675" height="12.06" fill="#E6E6E6"/>
<rect id="Rectangle_27" x="122.212" y="203.13" width="81.2925" height="12.06" transform="rotate(180 122.212 203.13)" fill="#F5F5F5"/>
<rect id="Rectangle_28" x="122.212" y="210.63" width="20.4675" height="12.06" fill="#E6E6E6"/>
<rect id="Rectangle_29" x="122.212" y="222.69" width="81.2925" height="12.06" transform="rotate(180 122.212 222.69)" fill="#F5F5F5"/>
<rect id="Rectangle_30" x="139.08" y="245.55" width="3.78" height="61.98" transform="rotate(180 139.08 245.55)" fill="#E6E6E6"/>
<rect id="Rectangle_31" x="122.212" y="245.55" width="3.78" height="61.98" transform="rotate(180 122.212 245.55)" fill="#F5F5F5"/>
<rect id="Rectangle_32" x="44.7" y="245.55" width="3.78" height="61.98" transform="rotate(180 44.7 245.55)" fill="#F5F5F5"/>
</g>
<g id="freepik--Shadow--inject-242">
<ellipse id="freepik--path--inject-242" cx="187.5" cy="270.93" rx="145.417" ry="8.49" fill="#F5F5F5"/>
</g>
<g id="freepik--Invoice--inject-242">
<path id="Path_11" d="M297 236.88H175.2C172.779 236.909 170.459 235.91 168.816 234.132C167.173 232.353 166.361 229.961 166.582 227.55L181.5 31.9725C181.981 26.7549 186.311 22.7351 191.55 22.6425H313.35C315.772 22.6109 318.093 23.6089 319.737 25.3881C321.38 27.1674 322.191 29.5607 321.967 31.9725L307.05 227.55C306.566 232.766 302.238 236.784 297 236.88Z" fill="#407BFF"/>
<path id="Path_12" opacity="0.5" d="M297 236.88H175.2C172.779 236.909 170.459 235.91 168.816 234.132C167.173 232.353 166.361 229.961 166.582 227.55L181.5 31.9725C181.981 26.7549 186.311 22.7351 191.55 22.6425H313.35C315.772 22.6109 318.093 23.6089 319.737 25.3881C321.38 27.1674 322.191 29.5607 321.967 31.9725L307.05 227.55C306.566 232.766 302.238 236.784 297 236.88Z" fill="white"/>
<path id="Path_13" d="M295.192 236.88H173.385C170.964 236.909 168.644 235.91 167.001 234.132C165.358 232.353 164.546 229.961 164.767 227.55L179.692 31.9725C180.174 26.7521 184.508 22.7313 189.75 22.6425H311.55C313.972 22.6109 316.293 23.6089 317.937 25.3881C319.58 27.1674 320.391 29.5607 320.167 31.9725L305.25 227.55C304.769 232.77 300.434 236.791 295.192 236.88Z" fill="#407BFF"/>
<path id="Path_14" opacity="0.7" d="M295.192 236.88H173.385C170.964 236.909 168.644 235.91 167.001 234.132C165.358 232.353 164.546 229.961 164.767 227.55L179.692 31.9725C180.174 26.7521 184.508 22.7313 189.75 22.6425H311.55C313.972 22.6109 316.293 23.6089 317.937 25.3881C319.58 27.1674 320.391 29.5607 320.167 31.9725L305.25 227.55C304.769 232.77 300.434 236.791 295.192 236.88Z" fill="white"/>
<path id="Path_15" d="M173.625 233.768C172.01 233.792 170.461 233.128 169.365 231.941C168.268 230.755 167.729 229.158 167.88 227.55L182.602 34.5675C182.917 31.0873 185.806 28.4049 189.3 28.35H311.1C312.715 28.3258 314.264 28.9899 315.36 30.1763C316.457 31.3626 316.996 32.9593 316.845 34.5675L302.122 227.55C301.809 231.027 298.924 233.709 295.432 233.768H173.625Z" fill="#407BFF"/>
<path id="Path_16" opacity="0.2" d="M294.57 60.8099H207.405C206.447 60.8226 205.529 60.4279 204.88 59.724C204.23 59.0201 203.911 58.0735 204 57.1199C204.194 55.0623 205.901 53.4779 207.968 53.4374H295.132C296.089 53.4226 297.008 53.8156 297.657 54.5183C298.307 55.221 298.627 56.167 298.538 57.1199C298.354 59.1837 296.642 60.7759 294.57 60.8099Z" fill="black"/>
<path id="Path_17" opacity="0.3" d="M257.385 26.445H243.308C243.072 26.4481 242.846 26.3511 242.686 26.1781C242.526 26.0051 242.446 25.7723 242.468 25.5375C242.517 25.0322 242.935 24.6428 243.443 24.63H257.528C257.762 24.6291 257.986 24.727 258.144 24.8997C258.303 25.0725 258.381 25.304 258.36 25.5375C258.318 26.0461 257.895 26.4391 257.385 26.445Z" fill="#407BFF"/>
<path id="Path_18" d="M207 57.12C207.252 54.4817 206.369 51.861 204.57 49.914C202.772 47.967 200.23 46.8781 197.58 46.92H286.08C288.73 46.8781 291.272 47.967 293.07 49.914C294.869 51.861 295.752 54.4817 295.5 57.12H207Z" fill="#F0F0F0"/>
<path id="Path_19" d="M197.603 46.9199C191.87 47.0082 187.129 51.4096 186.615 57.1199L177.548 175.972C177.038 181.682 172.299 186.084 166.568 186.172H255.068C260.8 186.084 265.541 181.683 266.055 175.972L275.123 57.1199C275.632 51.4108 280.371 47.0085 286.103 46.9199L197.603 46.9199Z" fill="white"/>
<path id="Path_20" d="M245.64 175.972C245.388 178.611 246.271 181.231 248.07 183.178C249.868 185.125 252.41 186.214 255.06 186.172H166.56C163.91 186.214 161.368 185.125 159.57 183.178C157.771 181.231 156.888 178.611 157.14 175.972H245.64Z" fill="#F0F0F0"/>
<path id="Path_21" d="M193.838 173.625C194.175 169.282 192.81 165.772 188.475 165.772H256.62C260.955 165.772 264.218 169.74 261.99 173.625H193.838Z" fill="#E0E0E0"/>
<path id="Path_22" d="M245.64 175.972C246.139 170.254 250.881 165.84 256.62 165.75H168.12C162.389 165.839 157.65 170.241 157.14 175.95L245.64 175.972Z" fill="#F0F0F0"/>
<path id="Path_23" d="M287.483 205.44H185.895C185.2 205.449 184.533 205.163 184.061 204.652C183.589 204.142 183.356 203.455 183.42 202.762C183.557 201.266 184.798 200.113 186.3 200.085H287.895C288.589 200.078 289.254 200.365 289.724 200.875C290.194 201.386 290.426 202.071 290.363 202.762C290.225 204.259 288.985 205.412 287.483 205.44Z" fill="white"/>
<path id="Path_24" d="M236.183 218.31H184.913C184.216 218.322 183.548 218.036 183.076 217.525C182.603 217.014 182.371 216.325 182.438 215.632C182.575 214.136 183.815 212.983 185.318 212.955H236.588C237.283 212.946 237.949 213.232 238.421 213.742C238.893 214.253 239.126 214.94 239.063 215.632C238.925 217.128 237.685 218.282 236.183 218.31Z" fill="white"/>
<path id="Path_25" d="M271.68 218.31H250.912C250.216 218.322 249.548 218.036 249.076 217.525C248.603 217.014 248.371 216.325 248.437 215.632C248.575 214.136 249.815 212.983 251.317 212.955H272.085C272.78 212.948 273.445 213.235 273.916 213.745C274.388 214.255 274.621 214.941 274.56 215.632C274.423 217.128 273.182 218.282 271.68 218.31Z" fill="white"/>
<path id="Shape_3" fill-rule="evenodd" clip-rule="evenodd" d="M292.448 167.385L287.145 168.217C287.016 167.726 286.811 167.258 286.538 166.83C286.267 166.504 285.933 166.236 285.555 166.042L285.24 170.115C288.04 170.88 289.885 171.685 290.775 172.53C291.947 173.644 292.528 175.244 292.343 176.85C292.276 177.849 291.967 178.817 291.442 179.67C290.949 180.497 290.302 181.222 289.538 181.807C288.831 182.359 288.034 182.782 287.182 183.06C286.206 183.34 285.198 183.494 284.182 183.517L283.98 186.172H282L282.202 183.517C281.075 183.444 279.963 183.219 278.895 182.85C278.095 182.552 277.365 182.092 276.75 181.5C276.201 180.973 275.76 180.344 275.452 179.647C275.136 178.882 274.941 178.073 274.875 177.247L280.613 176.587C280.645 177.289 280.824 177.976 281.137 178.605C281.472 179.087 281.934 179.466 282.472 179.7L282.847 174.727C281.502 174.382 280.187 173.926 278.918 173.362C278.117 172.936 277.452 172.294 276.997 171.51C276.461 170.566 276.24 169.476 276.367 168.397C276.469 166.782 277.215 165.274 278.438 164.212C279.953 162.99 281.845 162.33 283.792 162.345L283.898 160.95H285.953L285.847 162.345C287.535 162.342 289.182 162.866 290.557 163.845C291.613 164.743 292.288 166.008 292.448 167.385ZM283.5 165.975C283.007 166.107 282.557 166.365 282.195 166.725C281.937 167.011 281.783 167.376 281.76 167.76C281.72 168.142 281.819 168.525 282.037 168.84C282.349 169.202 282.762 169.463 283.222 169.59L283.5 165.975ZM286.32 178.957C285.81 179.422 285.177 179.729 284.498 179.842L284.843 175.327C285.513 175.506 286.122 175.864 286.605 176.362C286.883 176.706 287.018 177.144 286.98 177.585C286.933 178.107 286.698 178.594 286.32 178.957Z" fill="white"/>
<path id="Path_26" d="M192.54 80.0024H195.067L194.445 88.1474H191.925L192.54 80.0024Z" fill="#407BFF"/>
<path id="Path_27" d="M196.89 80.0024H199.238L201.96 84.5024L202.305 80.0024H204.675L204.053 88.1474H201.683L198.975 83.6474L198.63 88.1474H196.268L196.89 80.0024Z" fill="#407BFF"/>
<path id="Path_28" d="M205.545 80.0024H208.178L209.565 85.8674L211.815 80.0024H214.365L210.75 88.1474H208.028L205.545 80.0024Z" fill="#407BFF"/>
<path id="Shape_4" fill-rule="evenodd" clip-rule="evenodd" d="M215.527 80.9774C214.696 81.8008 214.212 82.9125 214.177 84.0824C214.084 84.8943 214.214 85.7162 214.552 86.4599C214.844 87.0566 215.32 87.5432 215.91 87.8474C216.615 88.168 217.386 88.3195 218.16 88.2899C218.958 88.3125 219.749 88.1373 220.462 87.7799C221.083 87.4511 221.602 86.9582 221.962 86.3549C222.364 85.6381 222.591 84.8362 222.622 84.0149C222.789 82.9184 222.474 81.8034 221.76 80.9549C220.943 80.1762 219.833 79.7809 218.707 79.8674C217.544 79.8118 216.404 80.2097 215.527 80.9774ZM216.697 84.0827C216.588 84.6946 216.702 85.3255 217.02 85.8599C217.312 86.2233 217.762 86.422 218.227 86.3924C218.714 86.4154 219.185 86.2234 219.517 85.8674C219.915 85.3183 220.122 84.655 220.11 83.9774C220.211 83.3925 220.091 82.7908 219.772 82.2899C219.476 81.9292 219.023 81.7337 218.557 81.7649C218.077 81.7525 217.614 81.9496 217.29 82.3049C216.903 82.8166 216.695 83.4412 216.697 84.0827Z" fill="#407BFF"/>
<path id="Path_29" d="M224.385 80.0024H226.905L226.29 88.1474H223.762L224.385 80.0024Z" fill="#407BFF"/>
<path id="Path_30" d="M233.768 84.8174L235.92 85.4849C235.754 86.0495 235.476 86.5749 235.103 87.0299C234.767 87.4394 234.337 87.7611 233.85 87.9674C233.269 88.1998 232.646 88.3096 232.02 88.2899C231.288 88.3169 230.558 88.1838 229.883 87.8999C229.296 87.607 228.822 87.1302 228.533 86.5424C228.149 85.775 228.003 84.9107 228.113 84.0599C228.134 82.8923 228.604 81.7778 229.425 80.9474C230.284 80.1935 231.404 79.8058 232.545 79.8674C233.382 79.8122 234.214 80.0307 234.915 80.4899C235.513 80.9698 235.924 81.6437 236.078 82.3949L233.828 82.8899C233.79 82.7 233.722 82.5176 233.625 82.3499C233.508 82.1619 233.342 82.009 233.145 81.9074C232.936 81.8001 232.705 81.746 232.47 81.7499C231.927 81.733 231.413 81.9929 231.105 82.4399C230.804 82.9187 230.643 83.472 230.64 84.0374C230.524 84.6702 230.619 85.3236 230.91 85.8974C231.177 86.2392 231.595 86.4272 232.028 86.3999C232.442 86.4267 232.85 86.28 233.153 85.9949C233.449 85.6571 233.659 85.2534 233.768 84.8174Z" fill="#407BFF"/>
<path id="Path_31" d="M237.555 80.0024H244.305L244.178 81.7424H239.955L239.858 83.0399H243.75L243.623 84.6974H239.708L239.58 86.3024H243.93L243.788 88.1474H236.918L237.555 80.0024Z" fill="#407BFF"/>
<path id="Path_32" d="M264.27 98.6625H191.122L191.272 96.6375H264.427L264.27 98.6625Z" fill="#407BFF"/>
<path id="Path_33" d="M264.27 98.6625H191.123L190.643 104.88H263.798L264.27 98.6625Z" fill="#F0F0F0"/>
<path id="Path_34" d="M263.325 111.09H190.17L189.698 117.3H262.853L263.325 111.09Z" fill="#F0F0F0"/>
<path id="Path_35" d="M262.373 123.51H189.225L188.753 129.728H261.9L262.373 123.51Z" fill="#F0F0F0"/>
<path id="Path_36" d="M261.427 135.938H188.272L187.8 142.148H260.955L261.427 135.938Z" fill="#F0F0F0"/>
<path id="Path_37" d="M260.325 150.39H187.17L187.328 148.357H260.483L260.325 150.39Z" fill="#407BFF"/>
<path id="Path_38" d="M251.955 60.8099H267.157L266.467 69.8774H251.265L251.955 60.8099Z" fill="#F0F0F0"/>
</g>
<g id="freepik--Character--inject-242">
<path id="Path_39" d="M102.885 118.5L105.6 119.588C106.591 119.986 107.46 120.638 108.12 121.478L109.365 123.053C110.195 124.096 110.157 125.585 109.275 126.585L107.955 128.085C107.467 128.641 106.777 128.978 106.039 129.022C105.3 129.066 104.575 128.812 104.025 128.318L102.75 127.193C102.75 127.193 98.85 124.455 97.7025 120.833L98.4525 120.083C99.5915 118.876 101.239 118.287 102.885 118.5Z" fill="#FFB573"/>
<path id="Path_40" d="M110.325 92.19L109.44 92.775L108.458 93.45C107.805 93.915 107.145 94.395 106.508 94.8825C105.225 95.88 103.98 96.9075 102.825 98.0025C100.544 100.051 98.5872 102.433 97.02 105.067C96.8325 105.382 96.6675 105.697 96.51 106.02L96.39 106.26C96.4203 106.159 96.4453 106.056 96.465 105.952C96.4905 105.829 96.4905 105.701 96.465 105.577C96.3975 105.36 96.39 105.922 96.5625 106.477C97.0223 107.918 97.6227 109.31 98.355 110.632C99.9 113.587 101.835 116.632 103.665 119.632L103.71 119.715C104.465 120.958 104.073 122.578 102.833 123.337C101.892 123.902 100.702 123.833 99.8325 123.165C98.3337 121.999 96.9038 120.747 95.55 119.415C94.1651 118.068 92.858 116.643 91.635 115.147C90.2728 113.513 89.1166 111.717 88.1925 109.8C87.9156 109.202 87.68 108.585 87.4875 107.955C87.2402 107.135 87.1089 106.284 87.0975 105.427C87.0922 104.847 87.1552 104.268 87.285 103.702C87.3606 103.38 87.4558 103.061 87.57 102.75L87.7125 102.367C87.9 101.85 88.11 101.347 88.3275 100.867C90.0796 97.0448 92.503 93.5673 95.4825 90.6C96.8918 89.1594 98.3951 87.814 99.9825 86.5725C100.778 85.9575 101.58 85.3575 102.413 84.795C102.833 84.51 103.253 84.225 103.688 83.955L104.355 83.55L105.105 83.115C107.55 81.7953 110.599 82.6083 112.062 84.9698C113.525 87.3313 112.895 90.4238 110.625 92.025L110.325 92.19Z" fill="#FFB573"/>
<path id="Path_41" d="M110.415 80.2875C106.035 80.2875 101.235 82.185 95.085 89.8125C95.085 94.365 104.693 100.418 104.693 100.418C104.693 100.418 120.443 80.25 110.415 80.2875Z" fill="#263238"/>
<path id="Shape_5" fill-rule="evenodd" clip-rule="evenodd" d="M77.64 260.543C77.7155 260.565 77.7937 260.578 77.8725 260.58C78.0926 260.566 78.2956 260.457 78.4275 260.28C78.5864 260.093 78.6598 259.848 78.63 259.605C78.528 258.396 76.3955 256.613 76.1837 256.436C76.1774 256.431 76.1728 256.427 76.17 256.425C76.099 256.38 76.0085 256.38 75.9375 256.425C75.8625 256.46 75.8174 256.538 75.825 256.62C75.8775 257.91 76.7325 260.22 77.64 260.543ZM77.805 260.123C77.205 259.935 76.5075 258.345 76.305 257.123C77.04 257.783 78.15 258.93 78.2325 259.643C78.2506 259.772 78.2124 259.903 78.1275 260.003C78.0608 260.112 77.9273 260.162 77.805 260.123Z" fill="#263238"/>
<path id="Shape_6" fill-rule="evenodd" clip-rule="evenodd" d="M75.915 256.793C76.9363 257.407 78.0924 257.762 79.2825 257.828C79.5884 257.84 79.8912 257.762 80.1525 257.603C80.3924 257.435 80.5006 257.134 80.4225 256.853C80.3669 256.613 80.2113 256.408 79.995 256.29C79.0869 255.753 76.8971 256.219 76.1974 256.368C76.0766 256.394 76.0002 256.41 75.9825 256.41C75.901 256.432 75.8396 256.499 75.825 256.583C75.8129 256.664 75.8477 256.745 75.915 256.793ZM79.9125 257.28C79.41 257.625 77.7075 257.25 76.605 256.695C77.5725 256.5 79.155 256.268 79.7775 256.65C79.8969 256.709 79.9825 256.82 80.01 256.95C80.055 257.153 79.9875 257.228 79.9125 257.28Z" fill="#263238"/>
<path id="Path_42" d="M68.055 256.118C70.2768 253.74 72.1596 251.067 73.65 248.175C73.65 248.175 80.61 249.885 79.245 251.925C76.7625 255.563 75.555 263.04 78.75 267.045C80.5725 269.333 77.6925 269.715 75.75 268.733C72.75 267.18 72.8475 266.595 71.25 264.023C69.9 261.825 69.3675 260.963 67.5 260.018C66 259.2 66.75 257.67 68.055 256.118Z" fill="#407BFF"/>
<path id="Path_43" d="M127.08 125.498C127.08 125.498 117 174.698 109.605 195.75C101.85 217.815 80.4375 251.873 79.605 253.335C76.56 252.518 73.845 251.453 72.0375 249.69C72.0375 249.69 82.0875 212.753 91.8825 188.79C95.6325 138.765 103.8 125.535 103.8 125.535L127.08 125.498Z" fill="#263238"/>
<path id="Path_44" opacity="0.2" d="M111.683 151.822C111.225 161.34 110.933 174.427 111.36 190.357C114.443 180.427 117.795 166.965 120.615 154.882C118.733 152.37 115.808 151.162 111.683 151.822Z" fill="black"/>
<path id="Path_45" d="M112.29 65.1675C113.348 69.45 114.383 76.4175 112.695 80.1675C112.695 80.1675 119.01 80.4525 127.08 86.9175C130.883 81.3375 126.48 80.2425 126.48 80.2425C123.128 79.4925 123.293 74.9925 123.3 71.805L112.29 65.1675Z" fill="#FFB573"/>
<path id="Path_46" d="M110.7 82.08C107.55 81.735 109.725 75.75 111.36 76.335C115.5 77.835 124.785 76.17 127.658 77.7525C130.53 79.335 129.803 82.5825 129.803 82.5825C129.803 82.5825 114.09 82.455 110.7 82.08Z" fill="#407BFF"/>
<path id="Path_47" opacity="0.7" d="M110.7 82.08C107.55 81.735 109.725 75.75 111.36 76.335C115.5 77.835 124.785 76.17 127.658 77.7525C130.53 79.335 129.803 82.5825 129.803 82.5825C129.803 82.5825 114.09 82.455 110.7 82.08Z" fill="white"/>
<path id="Path_48" d="M129.075 57.615C129.18 58.185 129.563 58.5975 129.938 58.53C130.313 58.4625 130.53 57.945 130.433 57.375C130.335 56.805 129.945 56.3925 129.57 56.46C129.195 56.5275 129 57.045 129.075 57.615Z" fill="#263238"/>
<path id="Path_49" d="M129.413 56.5201L130.718 55.8826C130.718 55.8826 130.2 57.0826 129.413 56.5201Z" fill="#263238"/>
<path id="Path_50" d="M129.84 53.04C129.874 52.9585 129.874 52.8666 129.84 52.785C129.789 52.6039 129.602 52.4971 129.42 52.545C128.352 52.8061 127.476 53.5655 127.065 54.585C127.014 54.7645 127.108 54.9533 127.283 55.02C127.463 55.0795 127.657 54.9823 127.718 54.8025C128.048 53.996 128.75 53.4004 129.6 53.205C129.7 53.1863 129.787 53.1264 129.84 53.04Z" fill="#263238"/>
<path id="Path_51" d="M129.75 59.01C130.405 60.2743 131.23 61.4428 132.203 62.4825C131.65 62.9731 130.908 63.1929 130.178 63.0825L129.75 59.01Z" fill="#ED893E"/>
<path id="Path_52" d="M109.5 57.3225C111.173 64.2825 111.75 67.26 115.853 70.2525C122.055 74.7525 130.065 71.1975 130.47 63.8925C130.83 57.3075 128.04 47.04 120.795 45.435C113.55 43.83 107.828 50.3625 109.5 57.3225Z" fill="#FFB573"/>
<path id="Path_53" d="M123 58.605C127.095 53.19 129.75 48.81 127.748 44.0175C126.06 40.0125 121.388 41.1825 120.735 43.185C108.315 42.1275 103.853 46.6275 106.418 54.0675C108.053 58.815 101.708 56.3175 103.253 62.3775C104.43 66.9975 100.253 68.76 102.375 71.415C105.435 75.2475 111.75 70.2525 118.958 73.125C124.838 75.48 133.703 71.9175 123 58.605Z" fill="#263238"/>
<path id="Path_54" d="M122.318 59.6999C123.002 60.8246 124.135 61.6026 125.43 61.8374C127.058 62.0774 127.62 60.2474 126.93 58.5524C126.33 57.0524 124.763 55.0649 123.225 55.6124C121.688 56.1599 121.395 58.2374 122.318 59.6999Z" fill="#FFB573"/>
<path id="Shape_7" fill-rule="evenodd" clip-rule="evenodd" d="M121.193 263.618C122.198 264.47 123.431 265.01 124.74 265.17C124.918 265.183 125.097 265.158 125.265 265.095C125.549 264.962 125.704 264.652 125.64 264.345C125.626 264.098 125.502 263.869 125.303 263.723C124.406 263.003 121.962 263.199 121.417 263.243C121.36 263.247 121.324 263.25 121.313 263.25C121.228 263.261 121.158 263.319 121.133 263.4C121.11 263.478 121.134 263.562 121.193 263.618ZM125.078 264.69C124.53 264.96 122.903 264.338 121.883 263.625C122.873 263.565 124.5 263.58 125.033 264.045C125.141 264.121 125.21 264.242 125.22 264.375C125.235 264.578 125.16 264.645 125.078 264.69Z" fill="#263238"/>
<path id="Shape_8" fill-rule="evenodd" clip-rule="evenodd" d="M121.163 263.588C121.204 263.641 121.267 263.674 121.335 263.678L121.388 263.693C122.64 263.43 124.785 262.208 124.95 261.255C125.014 260.952 124.866 260.645 124.59 260.505C124.381 260.371 124.123 260.335 123.885 260.408C122.671 260.713 121.243 263.215 121.164 263.353L121.163 263.355C121.118 263.426 121.118 263.517 121.163 263.588ZM123.983 260.798H124.133C124.209 260.791 124.287 260.804 124.358 260.835C124.53 260.948 124.53 261.053 124.53 261.143C124.425 261.743 122.963 262.688 121.793 263.093C122.325 262.26 123.278 260.978 123.983 260.798Z" fill="#263238"/>
<path id="Path_55" d="M130.313 267.803C124.238 267.33 120.143 263.16 120.563 258.743C120.795 256.305 113.01 256.088 113.01 256.088C114.24 263.64 112.695 264.72 112.185 266.67C111.675 268.62 111.803 270.78 113.415 270.818C115.343 270.87 116.243 270.503 118.665 270.593C121.47 270.705 124.5 270.81 129.488 270.818C131.46 270.825 133.013 268.013 130.313 267.803Z" fill="#407BFF"/>
<path id="Path_56" d="M137.58 125.498C137.58 125.498 137.048 162.765 134.108 187.253C131.168 211.74 121.058 259.77 121.058 259.77C118.398 260.398 115.627 260.372 112.98 259.695C112.98 259.695 109.785 222.195 115.148 185.918C111.21 147.915 108.743 125.498 108.743 125.498L137.58 125.498Z" fill="#263238"/>
<path id="Path_57" d="M138.96 91.0275C138.833 93.9075 143.378 100.568 137.768 104.423C138.818 106.77 139.703 122.663 137.58 125.498C134.483 127.748 117.72 127.335 103.83 125.498C103.238 119.753 106.403 107.85 102.525 89.295C102.095 87.2405 102.558 85.1002 103.798 83.4067C105.038 81.7132 106.939 80.6258 109.028 80.415C110.198 80.3025 111.435 80.1975 112.703 80.1375C117.13 79.8259 121.573 79.8259 126 80.1375C127.433 80.2725 128.918 80.4525 130.335 80.655C135.452 81.3762 139.184 85.8651 138.96 91.0275Z" fill="#407BFF"/>
<g id="Group" opacity="0.3">
<path id="Path_58" d="M102.87 88.29L102.563 88.4625C102.487 88.4853 102.433 88.5513 102.425 88.6298C102.417 88.7083 102.457 88.7838 102.527 88.821C102.596 88.8583 102.681 88.8499 102.743 88.8L103.088 88.6125C104.588 89.16 106.185 90.405 107.108 90.5325C105.608 89.22 104.55 88.2825 103.358 88.4475C103.71 88.2375 104.055 88.0275 104.4 87.8025C105.765 88.3125 107.25 89.4525 108.098 89.565C106.718 88.35 105.728 87.48 104.64 87.645L105.39 87.1275L105.81 86.82C107.048 87.3525 108.353 88.485 109.133 88.6425C107.888 87.4125 107.01 86.5425 105.96 86.715C106.29 86.4675 106.613 86.22 106.928 85.965C108.06 86.46 109.26 87.465 109.973 87.6375C108.833 86.505 108.03 85.71 107.063 85.86L107.873 85.185L108.068 85.02C109.065 85.545 110.055 86.58 110.708 86.7675C109.763 85.635 109.103 84.8475 108.113 84.975C108.368 84.7575 108.623 84.5325 108.863 84.3C109.785 84.7875 110.693 85.74 111.293 85.9125C110.423 84.87 109.793 84.15 108.908 84.2625L109.703 83.5125C110.505 84.0075 111.27 84.9075 111.803 85.095C111.053 84.105 110.573 83.4225 109.755 83.46C109.898 83.3175 110.04 83.1825 110.175 83.04L110.415 82.7925C111.165 83.25 111.863 84.0825 112.35 84.255C111.69 83.3475 111.218 82.71 110.468 82.755C110.685 82.53 110.903 82.2975 111.113 82.065C111.788 82.4325 112.425 83.13 112.875 83.265C112.283 82.515 111.863 81.96 111.143 82.035L111.263 81.9075L111.713 81.3825C112.228 81.7726 112.764 82.1356 113.318 82.47C112.778 81.7725 112.395 81.285 111.75 81.3375C111.923 81.1275 112.095 80.9025 112.245 80.6775C112.258 80.6661 112.265 80.6497 112.265 80.6325C112.265 80.6152 112.258 80.5988 112.245 80.5875C112.221 80.5687 112.187 80.5687 112.163 80.5875C112.013 80.7975 111.855 81 111.69 81.195C111.725 80.8419 111.626 80.4886 111.413 80.205H111.158C111.317 80.5662 111.455 80.9369 111.57 81.315C111.435 81.4725 111.293 81.6225 111.158 81.7725L111.06 81.8775C111.203 81.33 110.918 80.8575 110.483 80.2575H110.34C110.46 80.7225 110.813 81.36 110.955 81.975L110.355 82.5825C110.55 81.8925 110.07 81.285 109.403 80.4225C109.403 80.94 110.033 81.8325 110.273 82.6725L110.063 82.8825L109.65 83.2725C109.838 82.5225 109.328 81.87 108.6 80.9475C108.6 81.5025 109.283 82.4475 109.545 83.37L108.795 84.0225C108.953 83.2725 108.45 82.5225 107.768 81.5475C107.768 82.14 108.375 83.19 108.623 84.1725L108.03 84.675C108.203 83.865 107.663 83.07 106.92 81.9825C106.92 82.6275 107.58 83.7675 107.843 84.8325L107.685 84.96C107.415 85.185 107.138 85.4025 106.86 85.62C107.078 84.7875 106.56 83.85 105.848 82.575C105.795 83.265 106.41 84.615 106.598 85.8075C106.283 86.0475 105.968 86.2725 105.645 86.505C106.005 85.56 105.42 84.5025 104.61 83.0325C104.543 83.7825 105.248 85.3275 105.45 86.64L105.165 86.835L104.273 87.4125C104.685 86.46 104.183 85.335 103.448 83.805C103.41 83.8575 103.373 83.91 103.343 83.9625C103.395 84.8625 103.92 86.3025 104.033 87.555C103.703 87.765 103.358 87.96 103.02 88.1475C103.41 87.3525 103.185 86.4525 102.705 85.3275C102.595 85.6459 102.507 85.9717 102.443 86.3025C102.636 86.9529 102.779 87.6174 102.87 88.29Z" fill="#263238"/>
<path id="Path_59" d="M122.033 83.0925C120.9 82.3425 119.783 81.045 119.033 80.7675C120.06 82.1775 120.795 83.175 121.86 83.175C121.493 83.3625 121.11 83.5575 120.78 83.76C119.745 83.0925 118.725 81.8775 118.043 81.6225C118.988 82.92 119.663 83.835 120.638 83.8725C120.33 84.045 120.03 84.225 119.73 84.405L119.513 84.54C118.605 83.865 117.795 82.6875 117.18 82.395C117.93 83.67 118.463 84.5475 119.43 84.5775C119.138 84.75 118.853 84.9375 118.568 85.125C117.743 84.5025 116.993 83.415 116.43 83.1525C117.12 84.315 117.6 85.125 118.523 85.155L117.623 85.7625C116.91 85.1475 116.295 84.135 115.8 83.865C116.355 84.9525 116.745 85.7175 117.563 85.8075L117.075 86.1525L116.805 86.355C116.145 85.7925 115.575 84.855 115.118 84.6075C115.635 85.6125 115.995 86.31 116.745 86.4C116.49 86.5875 116.243 86.775 115.995 86.97C115.38 86.505 114.863 85.7175 114.435 85.515C114.908 86.37 115.23 86.9625 115.935 87.015L115.8 87.12L115.268 87.57C114.713 87.135 114.24 86.4225 113.85 86.235C114.278 86.985 114.6 87.555 115.223 87.6075C115.02 87.7875 114.818 87.9825 114.623 88.185C114.61 88.1949 114.602 88.2101 114.602 88.2262C114.602 88.2423 114.61 88.2575 114.623 88.2675C114.646 88.2894 114.682 88.2894 114.705 88.2675C114.881 88.081 115.069 87.9057 115.268 87.7425C115.08 88.2525 115.35 88.77 115.71 89.475C115.648 88.8538 115.546 88.2375 115.403 87.63C115.56 87.495 115.718 87.375 115.883 87.2475L115.995 87.1575C115.74 87.735 116.033 88.3125 116.445 89.1225C116.372 88.4341 116.259 87.7505 116.108 87.075C116.34 86.895 116.565 86.73 116.805 86.565C116.505 87.21 116.88 87.8925 117.405 88.815C117.458 88.305 117 87.315 116.903 86.46L117.143 86.2875L117.608 85.9725C117.308 86.67 117.705 87.405 118.275 88.4325C118.328 87.8775 117.84 86.82 117.728 85.89L118.545 85.365C118.268 86.0775 118.643 86.865 119.16 87.9675C119.25 87.3825 118.823 86.25 118.733 85.245L119.4 84.84C119.1 85.59 119.505 86.4825 120.075 87.675C120.173 87.0375 119.7 85.8 119.61 84.7125L119.783 84.615L120.705 84.09C120.36 84.8775 120.705 85.8825 121.215 87.2625C121.38 86.5875 120.99 85.155 120.975 83.9475C121.328 83.76 121.673 83.58 122.033 83.4075C121.523 84.285 121.928 85.4175 122.505 87C122.685 86.25 122.235 84.6375 122.243 83.31L122.55 83.16L123.533 82.725C122.948 83.64 123.315 84.9 123.84 86.6475C124.08 85.8375 123.69 84.0675 123.788 82.62C124.148 82.47 124.538 82.335 124.883 82.2C124.178 83.1975 124.583 84.585 125.16 86.52C125.43 85.6425 124.995 83.6925 125.108 82.125L125.445 82.005C125.495 81.9897 125.536 81.9544 125.559 81.9074C125.582 81.8604 125.584 81.8061 125.565 81.7575C125.526 81.659 125.419 81.6067 125.318 81.6375L124.95 81.7725C124.082 81.2193 123.25 80.6105 122.46 79.95H121.86C122.835 81.1125 123.638 81.8925 124.635 81.9075C124.253 82.05 123.885 82.215 123.503 82.38C122.235 81.63 120.953 80.3025 120.135 80.0475C121.305 81.4725 122.145 82.485 123.248 82.4925L122.408 82.8825L122.033 83.0925Z" fill="#263238"/>
<path id="Path_60" d="M112.665 97.1174C111.84 96.2174 111.262 95.6174 110.452 95.7149L110.827 95.2574L111.037 94.9874C111.787 95.3549 112.612 96.1049 113.122 96.2174C112.372 95.3924 111.825 94.8074 111.075 94.9274C111.27 94.6799 111.457 94.4324 111.645 94.1774C112.357 94.4624 113.07 95.0849 113.535 95.1674C112.852 94.4699 112.38 93.9824 111.667 94.1399C111.707 94.0956 111.742 94.0479 111.772 93.9974C111.907 93.8099 112.035 93.6224 112.162 93.4274C112.721 93.7601 113.297 94.063 113.887 94.3349C113.265 93.6974 112.837 93.2549 112.2 93.3824C112.35 93.1499 112.492 92.9099 112.62 92.6324C112.634 92.6014 112.621 92.5644 112.59 92.5499C112.559 92.5354 112.522 92.5489 112.507 92.5799C112.387 92.806 112.252 93.024 112.102 93.2324C112.147 92.6924 111.75 92.2649 111.21 91.6799C111.437 92.2643 111.703 92.833 112.005 93.3824L111.645 93.8774L111.555 93.9899C111.652 93.3674 111.21 92.8874 110.602 92.2199C110.853 92.8672 111.144 93.4984 111.472 94.1099L110.94 94.7849C111.052 94.0724 110.512 93.5249 109.747 92.7374C109.837 93.2474 110.497 94.0724 110.865 94.8749L110.677 95.1074L110.31 95.5349C110.415 94.7849 109.837 94.1849 109.012 93.3449C109.11 93.8924 109.86 94.7849 110.22 95.6474L109.575 96.3974C109.65 95.6474 109.072 94.9649 108.277 94.0499C108.352 94.6424 109.072 95.6174 109.425 96.5624L108.892 97.1324C108.975 96.3074 108.345 95.5799 107.482 94.5824C107.557 95.2199 108.337 96.2849 108.72 97.3049L108.577 97.4549C108.337 97.7099 108.082 97.9574 107.827 98.2049C107.955 97.3574 107.34 96.4874 106.492 95.2949C106.492 95.9849 107.242 97.2599 107.61 98.4224C107.325 98.6924 107.032 98.9624 106.74 99.2174C106.995 98.2424 106.297 97.2599 105.322 95.8874C105.322 96.6374 106.215 98.0924 106.56 99.3749L106.297 99.5999C106.027 99.8324 105.75 100.057 105.472 100.282C105.795 99.2399 105.097 98.1299 104.13 96.5849C104.13 97.4249 104.962 99.0299 105.255 100.447C104.95 100.687 104.635 100.92 104.31 101.145C104.511 100.433 104.408 99.6702 104.025 99.0374C104.115 99.9299 104.19 100.8 104.25 101.655L104.355 101.58C105.892 101.962 107.632 103.012 108.562 103.035C106.942 101.895 105.772 101.085 104.625 101.385C104.955 101.137 105.277 100.882 105.592 100.635C107.01 100.987 108.592 101.955 109.462 101.977C107.962 100.92 106.875 100.162 105.81 100.477C106.05 100.275 106.282 100.08 106.515 99.8699L106.897 99.5174C108.187 99.9149 109.612 100.897 110.4 100.957C109.035 99.8774 108.06 99.1124 107.032 99.3974C107.332 99.1199 107.625 98.8349 107.917 98.5424C109.095 98.9099 110.407 99.8099 111.127 99.8699C109.867 98.8724 108.975 98.1674 108.03 98.4299C108.277 98.1749 108.525 97.9274 108.78 97.6799L108.952 97.4924C110.002 97.9049 111.105 98.8199 111.772 98.9399C110.707 97.9199 109.965 97.2074 108.997 97.4399C109.222 97.1924 109.455 96.9374 109.672 96.6899C110.64 97.0724 111.652 97.9124 112.267 98.0174C111.292 97.0799 110.61 96.4349 109.717 96.6449C109.957 96.3749 110.19 96.0974 110.415 95.8199C111.255 96.1799 112.117 96.9899 112.665 97.1174Z" fill="#263238"/>
<path id="Path_61" d="M125.723 96.57C125.183 96.81 124.455 97.7775 123.653 98.3925L122.955 98.0475C123.773 97.89 124.283 97.08 124.988 95.9625C124.395 96.2175 123.608 97.275 122.738 97.9425L122.558 97.845C122.243 97.6875 121.935 97.515 121.628 97.35C122.475 97.2225 123.128 96.375 124.02 95.2125C123.36 95.4375 122.37 96.54 121.358 97.2C121.013 97.005 120.675 96.81 120.338 96.6C121.343 96.5625 122.085 95.6025 123.113 94.2675C122.363 94.5225 121.26 95.7675 120.113 96.4725L119.82 96.2925L118.935 95.7C120.015 95.7 120.878 94.7175 122.07 93.3375C121.26 93.5625 119.978 94.8375 118.71 95.5425C118.385 95.3175 118.07 95.085 117.765 94.845C118.98 94.905 119.933 93.8175 121.26 92.2875C120.368 92.5275 118.958 93.945 117.57 94.695L117.293 94.47C117.215 94.3966 117.093 94.3966 117.015 94.47C116.943 94.5454 116.943 94.6645 117.015 94.74L117.323 94.98C117.413 96.5625 116.91 98.535 117.158 99.435C117.773 97.545 118.215 96.1875 117.593 95.1825C117.923 95.4225 118.26 95.655 118.598 95.88C118.673 97.38 118.215 99.15 118.448 99.975C119.018 98.2275 119.423 96.975 118.83 96.0375L119.58 96.5325L120.03 96.8025C120.03 98.145 119.505 99.8025 119.67 100.552C120.308 98.9325 120.758 97.7775 120.188 96.885C120.54 97.0875 120.938 97.2825 121.26 97.4775C121.26 98.715 120.78 100.222 120.93 100.935C121.515 99.435 121.928 98.3775 121.403 97.5525L122.348 98.0325L122.573 98.145C122.49 99.2625 121.935 100.59 122.018 101.257C122.685 99.945 123.143 99.0075 122.633 98.1675L123.555 98.595C123.473 99.63 122.963 100.845 123.045 101.467C123.653 100.252 124.073 99.4125 123.608 98.625C123.938 98.775 124.268 98.9175 124.605 99.0525C124.47 99.9825 123.945 101.047 123.983 101.61C124.605 100.552 125.033 99.8175 124.673 99.0825L125.228 99.3075L125.543 99.4275C125.423 100.29 124.943 101.265 124.973 101.782C125.543 100.815 125.94 100.132 125.61 99.45C125.903 99.5625 126.195 99.675 126.495 99.7725C126.435 100.522 126.045 101.4 126.105 101.872C126.57 101.017 126.855 100.417 126.54 99.7875L126.705 99.8475C126.923 99.915 127.14 99.99 127.365 100.05C127.212 100.681 127.092 101.319 127.005 101.962C127.425 101.212 127.755 100.642 127.418 100.065C127.683 100.148 127.953 100.214 128.228 100.26C128.258 100.265 128.288 100.245 128.295 100.215C128.3 100.182 128.281 100.151 128.25 100.14C127.995 100.087 127.748 100.02 127.5 99.945C128.025 99.825 128.318 99.33 128.715 98.64C128.34 98.805 127.868 99.4725 127.328 99.8925L126.75 99.6975L126.615 99.645C127.238 99.555 127.568 98.9925 128.025 98.2125C127.598 98.4 127.08 99.1425 126.473 99.5925C126.21 99.495 125.94 99.3975 125.678 99.285C126.383 99.1875 126.758 98.535 127.275 97.5525C126.818 97.785 126.233 98.6925 125.565 99.24L125.288 99.1275L124.77 98.9025C125.52 98.79 125.925 98.055 126.488 97.0275C125.993 97.275 125.363 98.25 124.643 98.85C124.343 98.7225 124.05 98.5875 123.758 98.445C124.605 98.34 125.078 97.5975 125.723 96.57Z" fill="#263238"/>
<path id="Path_62" d="M121.395 106.567C121.971 106.863 122.562 107.128 123.165 107.362C122.513 106.77 122.048 106.357 121.425 106.515C121.56 106.275 121.688 106.035 121.8 105.765C121.809 105.745 121.807 105.721 121.795 105.703C121.782 105.685 121.76 105.675 121.738 105.677C121.716 105.679 121.697 105.692 121.688 105.712C121.575 105.945 121.455 106.17 121.328 106.395C121.328 105.855 120.908 105.45 120.338 104.895C120.599 105.461 120.897 106.01 121.23 106.537L120.908 107.055L120.825 107.175C120.878 106.545 120.413 106.095 119.76 105.472C120.053 106.098 120.381 106.707 120.743 107.295L120.263 108.007C120.33 107.295 119.753 106.77 118.943 106.042C119.063 106.545 119.813 107.325 120.188 108.105L120.015 108.345C119.91 108.495 119.79 108.645 119.678 108.795C119.738 108.045 119.123 107.475 118.245 106.695C118.38 107.235 119.183 108.075 119.595 108.945C119.4 109.207 119.198 109.462 118.995 109.695C118.995 108.945 118.41 108.3 117.555 107.445C117.668 108.022 118.448 108.945 118.853 109.875C118.693 110.08 118.528 110.282 118.358 110.482C118.358 109.65 117.72 108.982 116.798 108.022C116.91 108.652 117.758 109.665 118.208 110.662L118.073 110.82C117.84 111.09 117.608 111.352 117.368 111.607C117.443 110.76 116.768 109.92 115.868 108.787C115.928 109.477 116.775 110.7 117.18 111.84C116.91 112.125 116.64 112.41 116.363 112.687C116.55 111.705 115.793 110.76 114.735 109.455C114.81 110.205 115.77 111.6 116.19 112.86L115.95 113.1L115.163 113.85C115.418 112.792 114.653 111.727 113.595 110.25C113.595 111.09 114.578 112.642 114.96 114C114.668 114.262 114.368 114.517 114.06 114.75C114.398 113.58 113.565 112.402 112.38 110.76C112.38 111.682 113.46 113.377 113.88 114.9L113.595 115.125C113.51 115.191 113.495 115.314 113.561 115.399C113.628 115.484 113.75 115.499 113.835 115.432L114.135 115.185C115.695 115.462 117.503 116.407 118.433 116.37C116.738 115.335 115.523 114.592 114.398 114.967C114.705 114.705 115.013 114.427 115.313 114.15C116.745 114.412 118.403 115.275 119.258 115.245C117.69 114.285 116.558 113.602 115.508 113.962C115.733 113.745 115.958 113.535 116.175 113.31L116.543 112.935C117.848 113.25 119.333 114.135 120.12 114.15C118.688 113.16 117.675 112.455 116.663 112.807C116.948 112.507 117.218 112.207 117.488 111.9C118.695 112.185 120.053 113.002 120.78 113.017C119.46 112.102 118.53 111.457 117.6 111.772C117.833 111.51 118.058 111.24 118.283 110.97L118.44 110.767C119.52 111.112 120.69 111.96 121.35 112.035C120.218 111.082 119.438 110.422 118.485 110.722L119.115 109.927C120.105 110.242 121.163 111.015 121.785 111.082C120.75 110.212 120.03 109.582 119.153 109.875C119.37 109.59 119.588 109.297 119.798 109.005C120.675 109.35 121.59 110.107 122.145 110.197C121.26 109.357 120.645 108.765 119.843 108.945C119.963 108.787 120.075 108.622 120.188 108.465C120.3 108.307 120.315 108.27 120.383 108.18C121.185 108.495 122.025 109.192 122.543 109.275C121.725 108.525 121.155 107.955 120.42 108.12C120.6 107.86 120.773 107.597 120.938 107.332C121.688 107.572 122.438 108.15 122.888 108.202C122.138 107.55 121.658 107.092 120.96 107.295L121.058 107.145L121.395 106.567Z" fill="#263238"/>
<path id="Path_63" d="M125.94 114.937C126.1 114.732 126.265 114.537 126.435 114.352C126.323 114.877 126.645 115.357 127.095 116.017C126.952 115.408 126.775 114.807 126.563 114.217L126.99 113.782L127.088 113.677C126.908 114.285 127.268 114.825 127.778 115.567C127.62 114.894 127.425 114.231 127.193 113.58L127.815 112.987C127.605 113.67 128.055 114.3 128.7 115.185C128.7 114.667 128.115 113.745 127.905 112.935L128.13 112.74L128.55 112.365C128.333 113.115 128.82 113.775 129.51 114.727C129.51 114.165 128.888 113.175 128.655 112.275C128.903 112.057 129.15 111.855 129.405 111.645C129.218 112.395 129.69 113.145 130.335 114.157C130.335 113.565 129.788 112.485 129.585 111.502L130.2 111.022C129.99 111.825 130.508 112.635 131.213 113.752C131.213 113.107 130.613 111.937 130.388 110.872L130.553 110.745L131.4 110.122C131.153 110.94 131.633 111.892 132.3 113.197C132.375 112.507 131.813 111.135 131.655 109.942C131.978 109.717 132.3 109.492 132.63 109.275C132.233 110.205 132.78 111.285 133.545 112.785C133.635 112.035 132.983 110.467 132.795 109.147L133.08 108.967C133.388 108.78 133.695 108.592 134.003 108.42C133.53 109.395 134.055 110.595 134.753 112.267C134.895 111.435 134.295 109.725 134.213 108.285C134.55 108.09 134.895 107.902 135.248 107.73C134.67 108.802 135.248 110.13 136.058 111.982C136.215 111.075 135.548 109.192 135.465 107.625L135.78 107.467C135.826 107.446 135.862 107.407 135.879 107.359C135.896 107.311 135.893 107.258 135.87 107.212C135.847 107.166 135.807 107.13 135.758 107.113C135.708 107.096 135.654 107.099 135.608 107.122L135.263 107.302C133.8 106.702 132.225 105.397 131.31 105.24C132.75 106.605 133.785 107.587 134.963 107.49C134.603 107.677 134.25 107.887 133.898 108.09C132.548 107.535 131.108 106.342 130.268 106.2C131.603 107.467 132.563 108.367 133.658 108.24L132.87 108.735L132.435 109.027C131.22 108.442 129.953 107.265 129.188 107.085C130.38 108.36 131.228 109.26 132.285 109.125C131.948 109.357 131.618 109.597 131.288 109.875C130.17 109.342 129.038 108.262 128.288 108.097C129.39 109.267 130.17 110.092 131.138 109.98C130.86 110.19 130.575 110.4 130.305 110.617L130.103 110.782C129.128 110.22 128.175 109.147 127.53 108.937C128.43 110.107 129.03 110.91 130.058 110.82L129.27 111.465C128.37 110.955 127.493 109.965 126.9 109.77C127.733 110.842 128.31 111.585 129.225 111.51C128.948 111.742 128.678 111.975 128.408 112.26C127.658 111.735 126.908 110.805 126.368 110.602C127.05 111.615 127.538 112.32 128.355 112.312L127.913 112.71L127.665 112.95C126.915 112.462 126.27 111.607 125.783 111.45C126.42 112.38 126.863 113.032 127.62 113.025C127.388 113.242 127.163 113.46 126.945 113.685C126.285 113.302 125.67 112.582 125.22 112.432C125.79 113.182 126.188 113.767 126.915 113.722L126.795 113.842C126.638 114.007 126.473 114.18 126.323 114.352C125.715 113.992 125.16 113.34 124.755 113.205C125.273 113.917 125.633 114.42 126.255 114.397C126.068 114.6 125.893 114.813 125.73 115.035C125.717 115.046 125.71 115.063 125.71 115.08C125.71 115.097 125.717 115.114 125.73 115.125C125.74 115.138 125.755 115.145 125.771 115.145C125.787 115.145 125.803 115.138 125.813 115.125L125.94 114.937Z" fill="#263238"/>
<path id="Path_64" d="M117.15 125.625C117.45 125.345 117.742 125.06 118.027 124.77C119.212 125.137 120.517 126.037 121.245 126.097C119.985 125.1 119.092 124.395 118.147 124.65C118.395 124.402 118.642 124.147 118.897 123.9L119.07 123.712C120.12 124.125 121.215 125.04 121.89 125.16C120.825 124.132 120.082 123.427 119.107 123.66C119.34 123.412 119.565 123.157 119.79 122.91C120.757 123.292 121.77 124.132 122.385 124.237C121.402 123.3 120.72 122.647 119.835 122.865L120.532 122.04C121.387 122.437 122.25 123.247 122.782 123.375C121.957 122.482 121.372 121.875 120.532 121.98L120.907 121.522L121.117 121.252C121.905 121.62 122.7 122.362 123.21 122.482C122.46 121.65 121.912 121.072 121.162 121.192C121.357 120.945 121.545 120.697 121.725 120.442C122.475 120.727 123.15 121.35 123.615 121.432C122.94 120.735 122.467 120.247 121.755 120.405L121.86 120.262C121.987 120.075 122.122 119.887 122.25 119.692C122.807 120.021 123.38 120.322 123.967 120.592C123.352 119.962 122.917 119.52 122.28 119.64C122.433 119.41 122.573 119.173 122.7 118.927C122.711 118.909 122.711 118.886 122.7 118.867C122.689 118.848 122.669 118.837 122.647 118.837C122.626 118.837 122.606 118.849 122.595 118.867C122.47 119.092 122.335 119.31 122.19 119.52C122.19 118.98 121.837 118.552 121.297 117.967C121.514 118.549 121.765 119.117 122.047 119.67L121.695 120.165L121.605 120.277C121.702 119.655 121.26 119.175 120.645 118.507C120.901 119.15 121.192 119.778 121.515 120.39C121.342 120.622 121.17 120.847 120.99 121.065C121.102 120.36 120.562 119.805 119.797 119.025C119.887 119.535 120.585 120.36 120.915 121.162C120.847 121.237 120.787 121.32 120.727 121.395L120.36 121.822C120.465 121.072 119.887 120.472 119.062 119.632C119.16 120.18 119.91 121.065 120.27 121.935L119.625 122.685C119.7 121.935 119.122 121.252 118.327 120.337C118.395 120.922 119.077 121.905 119.467 122.85L118.935 123.42C119.017 122.587 118.395 121.867 117.532 120.87C117.607 121.507 118.387 122.572 118.77 123.592L118.627 123.742L117.877 124.492C118.005 123.645 117.382 122.767 116.535 121.582C116.535 122.272 117.322 123.547 117.652 124.71L116.79 125.505C117.037 124.53 116.347 123.547 115.365 122.175C115.365 122.925 116.265 124.38 116.61 125.662L116.347 125.887C116.077 126.12 115.8 126.345 115.522 126.562C115.845 125.527 115.147 124.417 114.18 122.872C114.18 123.705 114.99 125.28 115.29 126.682H115.867C116.1 126.487 116.332 126.292 116.557 126.09C116.782 125.887 116.82 125.857 116.947 125.737C117.834 126.072 118.701 126.457 119.542 126.892H120.112C118.987 126 118.087 125.362 117.15 125.625Z" fill="#263238"/>
<path id="Path_65" d="M113.003 123.315C113.003 124.065 113.565 125.295 113.963 126.547L114.533 126.592C114.465 125.662 113.828 124.635 113.003 123.315Z" fill="#263238"/>
<path id="Path_66" d="M115.98 126.697L117.113 126.765C116.749 126.635 116.356 126.612 115.98 126.697Z" fill="#263238"/>
<path id="Path_67" d="M137.805 125.122C137.828 125.079 137.848 125.034 137.865 124.987L137.595 124.89L137.46 124.845C137.671 124.81 137.869 124.716 138.03 124.575C138.097 124.38 138.165 124.17 138.225 123.937C137.945 124.245 137.641 124.531 137.317 124.792L136.5 124.5C137.205 124.395 137.58 123.75 138.097 122.76C137.64 122.992 137.055 123.9 136.387 124.455L136.11 124.342L135.592 124.117C136.342 123.997 136.747 123.27 137.31 122.235C136.815 122.49 136.185 123.465 135.465 124.065L134.58 123.66C135.33 123.502 135.795 122.76 136.44 121.732C135.9 121.972 135.172 122.947 134.37 123.562L133.672 123.217C134.49 123.052 135 122.242 135.705 121.125C135.112 121.387 134.325 122.445 133.455 123.105L133.275 123.015L132.345 122.512C133.192 122.385 133.845 121.537 134.737 120.382C134.077 120.607 133.087 121.71 132.075 122.362C131.73 122.175 131.392 121.972 131.055 121.77C132.06 121.725 132.802 120.772 133.83 119.437C133.08 119.685 131.977 120.937 130.83 121.642L130.537 121.462C130.237 121.267 129.945 121.072 129.652 120.862C130.732 120.862 131.595 119.88 132.787 118.507C131.977 118.732 130.695 120.007 129.427 120.712L128.475 120.007C129.697 120.067 130.65 118.98 131.977 117.45C131.085 117.697 129.675 119.107 128.287 119.857L128.01 119.64C127.925 119.574 127.803 119.589 127.736 119.674C127.67 119.759 127.685 119.881 127.77 119.947L128.077 120.18C128.167 121.762 127.665 123.742 127.912 124.635C128.527 122.752 128.97 121.395 128.347 120.382C128.677 120.63 129.015 120.862 129.352 121.087C129.427 122.542 128.97 124.357 129.202 125.182C129.772 123.427 130.177 122.182 129.585 121.245C129.847 121.41 130.102 121.582 130.335 121.74L130.785 122.01C130.785 123.352 130.26 125.01 130.425 125.76C131.062 124.132 131.512 122.985 130.942 122.085C131.295 122.295 131.692 122.49 132.015 122.677C132.015 123.915 131.535 125.43 131.685 126.135C132.27 124.635 132.682 123.585 132.157 122.76L133.102 123.232L133.327 123.345C133.245 124.47 132.69 125.79 132.772 126.465C133.44 125.145 133.897 124.215 133.387 123.375L134.31 123.802C134.235 124.807 133.755 125.97 133.792 126.607H133.83C134.422 125.437 134.82 124.612 134.362 123.832L135.36 124.267C135.247 125.017 134.887 125.857 134.775 126.45L134.977 126.412C135.457 125.572 135.727 124.912 135.427 124.297L135.975 124.515L136.297 124.642C136.194 125.172 136.053 125.693 135.877 126.202L136.222 126.097C136.502 125.672 136.555 125.137 136.365 124.665L137.25 124.987C137.224 125.241 137.176 125.492 137.107 125.737C137.222 125.68 137.332 125.615 137.437 125.542C137.441 125.35 137.392 125.161 137.295 124.995L137.46 125.047L137.805 125.122Z" fill="#263238"/>
<path id="Path_68" d="M108.945 109.5C109.046 109.468 109.105 109.363 109.08 109.26C109.051 109.157 108.944 109.096 108.84 109.125L108.465 109.237C107.137 108.375 105.84 106.8 104.97 106.47C106.125 108.082 106.957 109.237 108.142 109.335C107.752 109.455 107.392 109.59 106.98 109.732C106.08 109.14 105.195 108.232 104.467 107.632C104.467 107.805 104.467 107.97 104.467 108.142C105.217 109.117 105.87 109.77 106.717 109.83C106.425 109.935 106.14 110.047 105.855 110.167L105.367 110.37C105.047 110.129 104.744 109.865 104.46 109.582C104.46 109.792 104.46 109.995 104.46 110.205C104.689 110.341 104.945 110.423 105.21 110.445L104.46 110.797C104.46 110.902 104.46 111.007 104.46 111.112L105.472 110.677C104.91 111.517 105.247 112.68 105.712 114.292C105.945 113.542 105.592 111.915 105.712 110.587L106.027 110.46L107.032 110.092C106.387 110.97 106.672 112.252 107.085 114.022C107.377 113.235 107.085 111.442 107.287 110.01C107.662 109.882 108.037 109.762 108.412 109.657C107.662 110.61 107.962 112.012 108.412 113.992C108.735 113.13 108.412 111.157 108.645 109.597L108.945 109.5Z" fill="#263238"/>
<path id="Path_69" d="M104.31 114.172C104.31 114.262 104.355 114.345 104.385 114.442C104.481 113.791 104.481 113.129 104.385 112.477C104.363 113.055 104.34 113.625 104.31 114.172Z" fill="#263238"/>
<path id="Path_70" d="M106.965 125.145L106.688 124.702C107.295 123.502 108.51 122.265 108.705 121.5C107.4 122.662 106.455 123.487 106.59 124.545C106.365 124.2 106.133 123.87 105.9 123.532C106.463 122.43 107.573 121.282 107.76 120.6C106.56 121.665 105.713 122.422 105.803 123.397L105.18 122.542L105.03 122.34C105.608 121.38 106.703 120.45 106.935 119.812C105.743 120.682 104.918 121.312 104.993 122.295L104.363 121.492C104.903 120.607 105.908 119.752 106.118 119.167C105.023 119.97 104.265 120.525 104.325 121.417L103.86 120.862V121.177L104.13 121.507C104.036 121.485 103.941 121.47 103.845 121.462C103.845 121.575 103.845 121.68 103.845 121.792L104.28 121.687L104.753 122.317C104.449 122.228 104.126 122.228 103.823 122.317V122.782C104.179 122.657 104.546 122.559 104.918 122.49L105.038 122.647L105.645 123.517C105.025 123.382 104.377 123.47 103.815 123.765C103.815 123.9 103.815 124.042 103.815 124.177C104.477 124.007 105.148 123.871 105.825 123.772C106.043 124.102 106.253 124.432 106.455 124.77C105.743 124.44 104.955 124.687 103.868 125.152C103.868 125.25 103.868 125.362 103.868 125.452H104.033C104.865 125.239 105.709 125.071 106.56 124.95L106.74 125.242L107.063 125.82L107.483 125.872C107.288 125.67 107.13 125.407 106.965 125.145Z" fill="#263238"/>
<path id="Path_71" d="M104.033 118.335V118.687C104.244 118.49 104.421 118.26 104.558 118.005L104.033 118.335Z" fill="#263238"/>
<path id="Path_72" d="M108.443 126.045L109.11 126.12C109.673 125.371 110.13 124.549 110.468 123.675C109.687 124.369 109.006 125.166 108.443 126.045H108.443Z" fill="#263238"/>
<path id="Path_73" d="M107.685 126C108.308 124.732 109.41 123.427 109.568 122.632C108.263 123.937 107.318 124.882 107.438 125.97L107.685 126Z" fill="#263238"/>
<path id="Path_74" d="M103.935 119.677C103.935 119.88 103.935 120.075 103.897 120.27C104.429 119.765 104.912 119.21 105.337 118.612C104.825 118.904 104.353 119.262 103.935 119.677Z" fill="#263238"/>
</g>
<path id="Path_75" d="M156 101.34L159.315 97.8225L163.913 104.295C163.913 104.295 160.035 107.04 156.323 106.935L155.895 105.983C155.2 104.504 155.238 102.785 156 101.34Z" fill="#FFB573"/>
<path id="Path_76" d="M164.663 98.1675L165.96 100.605C166.553 101.72 166.134 103.104 165.023 103.703L163.943 104.295L159.345 97.8225L161.978 97.0725C163.019 96.7543 164.141 97.2117 164.663 98.1675Z" fill="#FFB573"/>
<path id="Path_77" d="M138.51 88.7175L138.795 90.15L139.11 91.65C139.335 92.6625 139.553 93.6825 139.808 94.65C140.295 96.66 140.88 98.6325 141.503 100.537C142.123 102.367 142.875 104.149 143.753 105.87C144.454 107.286 145.381 108.577 146.498 109.695L144.908 108.945C144.443 108.885 144.353 109.027 144.6 109.02C144.994 108.978 145.377 108.866 145.733 108.69C146.856 108.174 147.927 107.549 148.928 106.822C150.045 106.072 151.178 105.187 152.295 104.28C153.413 103.372 154.545 102.405 155.64 101.512L155.76 101.422C156.728 100.632 158.117 100.628 159.089 101.414C160.061 102.199 160.349 103.558 159.78 104.67C159.027 106.107 158.188 107.497 157.268 108.832C156.33 110.185 155.308 111.478 154.208 112.702C153.007 114.054 151.65 115.257 150.165 116.287C149.234 116.916 148.226 117.42 147.165 117.787C146.481 118.026 145.771 118.182 145.05 118.252C144.155 118.332 143.254 118.266 142.38 118.057C141.869 117.935 141.388 117.713 140.963 117.405L140.783 117.27C138.479 115.545 136.539 113.381 135.075 110.902C134.39 109.787 133.775 108.662 133.23 107.527C132.685 106.392 132.185 105.257 131.73 104.122C130.862 101.882 130.126 99.5934 129.525 97.2675C129.233 96.1125 128.955 94.965 128.723 93.8025C128.61 93.2175 128.49 92.64 128.393 92.0475C128.295 91.455 128.205 90.9 128.108 90.195C127.747 87.3944 129.666 84.8103 132.451 84.3461C135.237 83.8819 137.89 85.7039 138.458 88.47L138.51 88.7175Z" fill="#FFB573"/>
<path id="Path_78" d="M131.318 80.8425C135.683 81.2925 139.17 84.1875 141.608 93.405C139.733 96 127.92 101.692 127.92 101.692C127.92 101.692 121.343 79.815 131.318 80.8425Z" fill="#263238"/>
</g>
</g>
</svg>
