<svg width="375" height="280" viewBox="0 0 375 280" fill="none" xmlns="http://www.w3.org/2000/svg">
<g id="Wallet-rafiki">
<g id="freepik--background-complete--inject-8">
<rect id="Rectangle" y="245.769" width="375" height="0.187668" fill="#EBEBEB"/>
<rect id="Rectangle_2" x="112.53" y="250.559" width="17.385" height="0.187668" fill="#EBEBEB"/>
<rect id="Rectangle_3" x="301.575" y="254.582" width="42.5025" height="0.187668" fill="#EBEBEB"/>
<rect id="Rectangle_4" x="32.04" y="254.582" width="42.5025" height="0.187668" fill="#EBEBEB"/>
<path id="Shape" fill-rule="evenodd" clip-rule="evenodd" d="M32.9325 212.29H177.75C180.115 212.29 182.033 210.37 182.033 208.003V4.28633C182.033 1.91905 180.115 0 177.75 0H32.9325C30.5848 0.00402512 28.6781 1.89911 28.6575 4.24879V208.003C28.6575 210.368 30.5703 212.285 32.9325 212.29ZM28.845 4.24879C28.845 1.98809 30.6738 0.154275 32.9325 0.150134H177.75C180.008 0.158368 181.837 1.98859 181.845 4.24879V208.003C181.837 210.263 180.008 212.094 177.75 212.102H32.9325C30.6738 212.098 28.845 210.264 28.845 208.003V4.24879Z" fill="#EBEBEB"/>
<path id="Shape_2" fill-rule="evenodd" clip-rule="evenodd" d="M195.157 212.29H339.982C341.116 212.288 342.203 211.835 343.003 211.031C343.803 210.227 344.252 209.138 344.25 208.003V4.24879C344.229 1.90203 342.327 0.00813029 339.982 0H195.157C192.809 0.00398086 190.9 1.8979 190.875 4.24879V208.003C190.883 210.367 192.796 212.281 195.157 212.29ZM191.062 4.24879C191.071 1.98859 192.899 0.158368 195.157 0.150134H339.982C342.241 0.158368 344.069 1.98859 344.077 4.24879V208.003C344.069 210.263 342.241 212.094 339.982 212.102H195.157C192.899 212.094 191.071 210.263 191.062 208.003V4.24879Z" fill="#EBEBEB"/>
<rect id="Rectangle_5" x="218.985" y="186.189" width="17.3175" height="59.9861" fill="#E6E6E6"/>
<rect id="Rectangle_6" x="206.723" y="186.189" width="17.3175" height="59.9861" fill="#E6E6E6"/>
<path id="Path" d="M220.755 246.175H224.04V236.806H217.297L220.755 246.175Z" fill="#F0F0F0"/>
<rect id="Rectangle_7" x="119.67" y="186.189" width="17.3175" height="59.9861" fill="#E6E6E6"/>
<rect id="Rectangle_8" x="134.122" y="186.189" width="89.925" height="55.3769" fill="#F0F0F0"/>
<path id="Shape_3" fill-rule="evenodd" clip-rule="evenodd" d="M183.195 229.105H218.445C220.32 229.076 221.827 227.551 221.835 225.674V191.961C221.831 190.07 220.298 188.538 218.408 188.538H183.195C181.305 188.538 179.772 190.07 179.768 191.961V225.674C179.776 227.565 181.305 229.096 183.195 229.105ZM180.525 191.976C180.533 190.506 181.726 189.319 183.195 189.319L218.438 189.304C219.143 189.302 219.82 189.581 220.32 190.08C220.819 190.578 221.1 191.255 221.1 191.961V225.742C221.088 227.215 219.887 228.4 218.415 228.391H183.165C182.457 228.383 181.781 228.094 181.286 227.588C180.791 227.081 180.517 226.398 180.525 225.689V191.976Z" fill="#E0E0E0"/>
<path id="Shape_4" fill-rule="evenodd" clip-rule="evenodd" d="M139.68 229.105H174.93C176.821 229.1 178.353 227.567 178.358 225.674V191.961C178.353 190.07 176.82 188.538 174.93 188.538H139.68C137.79 188.538 136.257 190.07 136.253 191.961V225.674C136.261 227.565 137.79 229.096 139.68 229.105ZM137.798 190.095C138.297 189.596 138.975 189.317 139.68 189.319L174.93 189.304C176.399 189.304 177.592 190.491 177.6 191.961V225.689C177.592 227.16 176.4 228.35 174.93 228.354H139.68C138.974 228.354 138.297 228.073 137.797 227.573C137.298 227.074 137.018 226.396 137.018 225.689V191.976C137.017 191.27 137.298 190.593 137.798 190.095Z" fill="#E0E0E0"/>
<path id="Path_2" d="M171.66 199.19C169.834 199.19 168.354 197.71 168.353 195.882C168.351 194.055 169.829 192.572 171.655 192.569C173.481 192.567 174.963 194.045 174.968 195.872C174.968 197.702 173.488 199.186 171.66 199.19Z" fill="#FAFAFA"/>
<path id="Path_3" d="M186.495 199.19C184.668 199.203 183.178 197.731 183.165 195.903C183.153 194.074 184.623 192.582 186.45 192.57C188.277 192.557 189.768 194.029 189.78 195.857V195.925C189.76 197.729 188.297 199.182 186.495 199.19Z" fill="#FAFAFA"/>
<path id="Path_4" d="M137.408 246.175H134.115V236.806H140.858L137.408 246.175Z" fill="#F0F0F0"/>
<rect id="Rectangle_9" x="114.158" y="186.189" width="17.3175" height="59.9861" fill="#E6E6E6"/>
<path id="Path_5" d="M128.182 246.175H131.475V236.806H124.732L128.182 246.175Z" fill="#F0F0F0"/>
<rect id="Rectangle_10" x="41.55" y="186.189" width="89.925" height="55.3769" fill="#F0F0F0"/>
<path id="Shape_5" fill-rule="evenodd" clip-rule="evenodd" d="M90.6225 229.105H125.873C127.751 229.084 129.263 227.554 129.263 225.674V191.961C129.258 190.07 127.725 188.538 125.835 188.538H90.6225C88.7325 188.538 87.1991 190.07 87.195 191.961V225.674C87.195 227.569 88.7296 229.105 90.6225 229.105ZM88.7403 190.095C89.2398 189.596 89.9171 189.317 90.6225 189.319L125.88 189.304C127.346 189.308 128.534 190.494 128.543 191.961V225.742C128.526 227.216 127.323 228.4 125.85 228.391H90.6C89.8919 228.383 89.2159 228.094 88.7208 227.588C88.2257 227.081 87.952 226.398 87.96 225.689V191.976C87.96 191.27 88.2408 190.593 88.7403 190.095Z" fill="#E0E0E0"/>
<path id="Shape_6" fill-rule="evenodd" clip-rule="evenodd" d="M47.1525 229.105H82.3575C84.2487 229.1 85.7809 227.567 85.785 225.674V191.961C85.785 191.052 85.4237 190.18 84.7807 189.538C84.1377 188.896 83.2658 188.536 82.3575 188.538H47.1525C46.2442 188.536 45.3723 188.896 44.7294 189.538C44.0864 190.18 43.725 191.052 43.725 191.961V225.674C43.725 227.569 45.2596 229.105 47.1525 229.105ZM45.2654 190.092C45.7666 189.593 46.4458 189.315 47.1525 189.319L82.3725 189.289C83.0793 189.285 83.7584 189.563 84.2596 190.062C84.7607 190.561 85.0425 191.239 85.0425 191.946V225.727C85.0425 226.435 84.761 227.114 84.26 227.614C83.7591 228.114 83.0799 228.393 82.3725 228.391H47.1225C46.4144 228.384 45.7384 228.094 45.2433 227.588C44.7482 227.081 44.4745 226.398 44.4825 225.689V191.976C44.4825 191.269 44.7643 190.591 45.2654 190.092Z" fill="#E0E0E0"/>
<path id="Path_6" d="M79.095 199.19C77.2683 199.195 75.7841 197.716 75.78 195.887C75.7759 194.059 77.2533 192.574 79.08 192.569C80.9067 192.565 82.3908 194.044 82.395 195.872C82.399 196.751 82.0531 197.595 81.4338 198.218C80.8145 198.84 79.9728 199.19 79.095 199.19Z" fill="#FAFAFA"/>
<path id="Path_7" d="M93.93 199.19C92.1034 199.203 90.6126 197.731 90.6001 195.903C90.5877 194.074 92.0584 192.582 93.885 192.57C95.7117 192.557 97.2025 194.029 97.215 195.857V195.925C97.1945 197.729 95.7321 199.182 93.93 199.19Z" fill="#FAFAFA"/>
<path id="Path_8" d="M44.835 246.175H41.55V236.806H48.285L44.835 246.175Z" fill="#F0F0F0"/>
<rect id="Rectangle_11" x="168.24" y="19.9077" width="32.22" height="32.2488" fill="#EBEBEB"/>
<rect id="Rectangle_12" x="200.467" y="19.9153" width="1.425" height="32.2488" fill="#E0E0E0"/>
<rect id="Rectangle_13" x="172.612" y="24.2842" width="23.49" height="23.511" fill="white"/>
<path id="Path_9" d="M188.288 39.9657C187.245 41.0113 185.83 41.5989 184.354 41.5989C182.878 41.5989 181.463 41.0113 180.42 39.9657C178.253 37.7917 178.253 34.2727 180.42 32.0987C182.595 29.9293 186.113 29.9293 188.288 32.0987C190.454 34.2727 190.454 37.7917 188.288 39.9657Z" fill="#F5F5F5"/>
<rect id="Rectangle_14" x="131.122" y="61.3748" width="37.7775" height="37.8113" fill="#EBEBEB"/>
<rect id="Rectangle_15" x="168.9" y="61.3823" width="1.6725" height="37.8113" fill="#E0E0E0"/>
<rect id="Rectangle_16" x="136.245" y="66.5018" width="27.54" height="27.5646" fill="white"/>
<rect id="Rectangle_17" x="144.135" y="74.3989" width="11.745" height="11.7555" fill="#F5F5F5"/>
<rect id="Rectangle_18" x="317.422" y="49.214" width="20.4525" height="4.78177" fill="#E6E6E6"/>
<rect id="Rectangle_19" x="232.763" y="49.214" width="84.66" height="4.78177" fill="#F5F5F5"/>
<rect id="Rectangle_20" x="257.033" y="23.8263" width="23.835" height="25.3952" fill="#E0E0E0"/>
<rect id="Rectangle_21" x="250.927" y="23.8263" width="6.105" height="25.3952" fill="#F0F0F0"/>
<rect id="Rectangle_22" x="269.212" y="19.9077" width="17.9025" height="29.3062" fill="#E6E6E6"/>
<rect id="Rectangle_23" x="264.045" y="19.9077" width="5.175" height="29.3062" fill="#F0F0F0"/>
<rect id="Rectangle_24" x="274.492" y="23.8263" width="15.0975" height="25.3952" fill="#F0F0F0"/>
<rect id="Rectangle_25" x="271.043" y="23.8263" width="3.45" height="25.3952" fill="#FAFAFA"/>
<rect id="Rectangle_26" x="286.845" y="28.1201" width="19.8" height="21.0938" fill="#E6E6E6"/>
<rect id="Rectangle_27" x="281.775" y="28.1201" width="5.07" height="21.0938" fill="#FAFAFA"/>
<rect id="Rectangle_28" x="296.962" y="24.8698" width="14.8725" height="24.3517" fill="#E6E6E6"/>
<rect id="Rectangle_29" x="292.665" y="24.8698" width="4.2975" height="24.3517" fill="#F0F0F0"/>
<rect id="Rectangle_30" x="301.342" y="28.1201" width="14.445" height="21.0938" fill="#F0F0F0"/>
<rect id="Rectangle_31" x="298.478" y="28.1201" width="2.865" height="21.0938" fill="#FAFAFA"/>
<path id="Path_10" d="M305.318 190.985C311.723 182.608 326.97 179.493 332.243 174.208C339.143 167.279 339.113 156.883 333.233 153.129C328.133 149.871 311.213 171.896 309.315 174.373C302.753 182.848 300.855 189.131 299.625 195.219C299.768 190.047 299.903 185.288 300.015 181.625C300.368 169.666 300.81 165.815 301.02 164.637C301.77 164.051 302.565 163.383 303.045 163.023C307.14 159.968 316.215 156.327 320.753 151.891C327.383 145.405 326.31 137.628 321.66 134.753C316.808 131.75 308.213 138.874 303.66 145.953C299.108 153.032 301.05 159.818 299.775 165.65C299.505 166.806 299.228 171.183 298.973 177.256C297.893 171.271 294.585 165.919 289.718 162.28C283.44 157.265 278.018 151.155 272.843 151.943C267.668 152.731 270.48 160.816 274.545 166.491C278.19 171.543 296.183 176.588 298.83 180.649C298.515 188.906 298.238 199.303 298.043 209.017C296.625 204.002 297.6 203.582 291.788 195.88C288.338 191.316 274.163 185.671 272.483 188.824C270.803 191.976 273.36 197.892 278.708 202.043C283.02 205.391 292.553 205.383 294.81 207.463C295.328 207.943 297.06 209.805 298.005 210.878C297.773 222.724 297.675 233.181 297.788 236.754L298.718 236.791C298.673 235.868 298.778 229.84 298.965 221.861C301.29 217.619 316.965 215.104 321.773 210.721C326.828 206.104 330.458 200.714 328.29 197.103C326.483 194.101 312.255 198.184 306.428 203.169C302.573 206.487 300.218 210.037 299.138 214.797C299.265 209.362 299.423 203.537 299.565 198.019C300.75 196.676 303.398 193.5 305.318 190.985Z" fill="#E6E6E6"/>
<path id="Path_11" d="M306.683 246.017H290.438C289.545 246.017 288.78 244.861 288.608 243.255L287.453 232.745H309.66L308.513 243.255C308.325 244.861 307.568 246.017 306.683 246.017Z" fill="#F0F0F0"/>
<path id="Path_12" d="M310.125 236.806H286.988C286.433 236.806 285.968 236.056 285.908 235.02L285.435 227.243C285.36 226.049 285.863 224.991 286.515 224.991H310.605C311.25 224.991 311.753 226.034 311.678 227.243L311.205 235.02C311.153 236.041 310.68 236.806 310.125 236.806Z" fill="#F0F0F0"/>
<g id="freepik--Shadow--inject-62--inject-8">
<ellipse id="freepik--path--inject-62--inject-8" cx="187.5" cy="271.172" rx="145.417" ry="8.49759" fill="#F5F5F5"/>
</g>
</g>
<g id="freepik--Coins--inject-8">
<path id="Path_13" d="M160.867 75.5775C159.21 79.6086 149.452 79.3308 139.23 75.112C129.007 70.8933 122.055 64.2048 123.712 60.1737C124.102 59.2429 125.212 55.7523 126.322 55.2718C130.132 53.6579 137.385 57.2836 145.237 60.5265C152.55 63.5292 160.912 65.4884 162.21 69.4595C162.99 71.8766 161.34 74.4289 160.867 75.5775Z" fill="#1A87DD"/>
<path id="Path_14" opacity="0.2" d="M162.21 69.4595C162.832 72.6199 161.46 74.1362 160.867 75.5775C160.275 77.0188 158.542 77.9646 156.12 78.2949C155.817 78.3465 155.512 78.3815 155.205 78.4C153.347 78.5093 151.483 78.4112 149.647 78.1073C149.385 78.1073 149.122 78.0247 148.852 77.9797C146.697 77.5925 144.574 77.0455 142.5 76.3432L141.75 76.088C140.917 75.7952 140.062 75.4724 139.207 75.1196C138.352 74.7668 137.542 74.3689 136.74 74.0161L136.05 73.6858C134.159 72.75 132.337 71.6814 130.597 70.488L129.982 70.0526C128.464 68.9781 127.072 67.734 125.835 66.3443C125.647 66.1341 125.475 65.9314 125.31 65.7212C123.697 63.6794 123.06 61.7276 123.697 60.1738C124.117 59.1754 125.017 55.7598 126.307 55.2644C127.894 54.817 129.573 54.817 131.16 55.2644L131.91 55.4445C135.66 56.4054 140.385 58.5448 145.207 60.5341C150.892 62.8837 157.62 65.3234 160.92 68.1384C161.116 68.3038 161.304 68.4792 161.482 68.6638C161.746 68.9092 161.989 69.1753 162.21 69.4595Z" fill="black"/>
<g id="Group" opacity="0.2">
<path id="Path_15" d="M132.285 54.7989L131.94 55.4295L125.85 66.3367C125.662 66.1265 125.49 65.9239 125.325 65.7137L131.175 55.2493L131.632 54.4386L132.285 54.7989Z" fill="black"/>
</g>
<g id="Group_2" opacity="0.2">
<path id="Path_16" d="M136.89 59.2503L130.612 70.5104L129.997 70.075L136.237 58.905L136.89 59.2503Z" fill="black"/>
</g>
<g id="Group_3" opacity="0.2">
<path id="Path_17" d="M148.432 65.7062L142.5 76.3432L141.75 76.088L147.75 65.3083L148.432 65.7062Z" fill="black"/>
</g>
<g id="Group_4" opacity="0.2">
<path id="Path_18" d="M143.062 62.7035L136.755 74.0161L136.065 73.6858L142.41 62.3057L143.062 62.7035Z" fill="black"/>
</g>
<g id="Group_5" opacity="0.2">
<path id="Path_19" d="M155.43 67.763L149.647 78.1073C149.385 78.1073 149.122 78.0247 148.852 77.9797L154.77 67.3877L155.43 67.763Z" fill="black"/>
</g>
<path id="Path_20" d="M162.165 72.0643C160.507 76.0954 150.87 75.9377 140.64 71.7115C130.41 67.4852 123.465 60.8042 125.13 56.7731C126.795 52.742 136.425 52.9072 146.655 57.1259C156.885 61.3447 163.822 68.0107 162.165 72.0643Z" fill="#1A87DD"/>
<path id="Path_21" opacity="0.2" d="M158.685 70.6005C157.515 73.4456 150 73.0477 141.907 69.7072C133.815 66.3667 128.205 61.3447 129.375 58.4997C130.545 55.6547 138.06 56.0525 146.16 59.393C154.26 62.7335 159.862 67.7555 158.685 70.6005Z" fill="white"/>
<path id="Path_22" d="M212.557 39.1399C215.227 42.5855 210.142 50.9254 201.39 57.704C192.637 64.4825 183.39 67.1849 180.727 63.7093C180.112 62.9136 177.622 60.2487 177.772 59.0026C178.275 54.8965 185.017 50.4075 191.737 45.1978C197.992 40.3485 203.835 34.0579 207.922 34.9061C210.405 35.4541 211.8 38.164 212.557 39.1399Z" fill="#1A87DD"/>
<path id="Path_23" opacity="0.2" d="M207.922 34.9362C210.975 35.9721 211.605 37.9388 212.557 39.1399C213.51 40.341 213.472 42.3453 212.557 44.6198C212.452 44.8976 212.325 45.1753 212.19 45.4606C211.368 47.1294 210.362 48.7006 209.19 50.1447C209.032 50.3549 208.86 50.5576 208.687 50.7678C207.277 52.4515 205.743 54.0273 204.097 55.482L203.52 55.985C202.852 56.563 202.147 57.141 201.42 57.704C200.692 58.267 199.965 58.8 199.23 59.3029C199.027 59.453 198.81 59.5957 198.607 59.7383C196.855 60.9149 195.02 61.9635 193.117 62.8761C192.885 62.9962 192.66 63.0938 192.442 63.1989C190.752 63.9817 188.978 64.571 187.155 64.9555C186.885 65.0155 186.622 65.0606 186.36 65.0981C183.787 65.4809 181.777 65.0981 180.75 63.7394C180.09 62.8836 177.577 60.3989 177.795 59.0402C178.187 57.434 179.021 55.9699 180.202 54.8139C180.367 54.6262 180.547 54.4386 180.735 54.2434C183.442 51.4359 187.635 48.4257 191.76 45.2354C196.627 41.482 202.087 36.8354 206.16 35.3791C206.406 35.2887 206.656 35.211 206.91 35.1463C207.242 35.0516 207.58 34.9814 207.922 34.9362V34.9362Z" fill="black"/>
<g id="Group_6" opacity="0.2">
<path id="Path_24" d="M180.337 53.6279L180.712 54.2435L187.132 64.9555C186.862 65.0156 186.6 65.0606 186.337 65.0982L180.18 54.799L179.7 54.0483L180.337 53.6279Z" fill="black"/>
</g>
<g id="Group_7" opacity="0.2">
<path id="Path_25" d="M186.48 51.8413L193.095 62.8762C192.862 62.9963 192.637 63.0939 192.42 63.1989L185.835 52.2242L186.48 51.8413Z" fill="black"/>
</g>
<g id="Group_8" opacity="0.2">
<path id="Path_26" d="M197.812 45.0402L204.075 55.4895L203.497 55.9924L197.167 45.423L197.812 45.0402Z" fill="black"/>
</g>
<g id="Group_9" opacity="0.2">
<path id="Path_27" d="M192.547 48.2006L199.207 59.303C199.005 59.4531 198.787 59.5957 198.585 59.7384L191.895 48.5834L192.547 48.2006Z" fill="black"/>
</g>
<g id="Group_10" opacity="0.2">
<path id="Path_28" d="M203.077 39.9731L209.167 50.1447C209.01 50.3549 208.837 50.5576 208.665 50.7678L202.432 40.3635L203.077 39.9731Z" fill="black"/>
</g>
<ellipse id="Oval" cx="194.292" cy="48.5207" rx="20.0392" ry="7.88691" transform="rotate(-37.76 194.292 48.5207)" fill="#1A87DD"/>
<ellipse id="Oval_2" opacity="0.2" cx="194.622" cy="48.2593" rx="15.8603" ry="5.57562" transform="rotate(-37.76 194.622 48.2593)" fill="white"/>
<path id="Path_29" d="M176.355 23.0005C175.5 27.9399 164.43 30.0267 151.89 27.7747C139.35 25.5227 129.892 19.72 130.77 14.7806C130.972 13.6321 131.325 9.45088 132.502 8.61763C136.395 5.87018 145.44 8.16723 155.07 9.87876C164.07 11.4777 173.917 11.6053 176.355 15.7565C177.832 18.3088 176.602 21.5892 176.355 23.0005Z" fill="#1A87DD"/>
<path id="Path_30" opacity="0.2" d="M176.355 15.7641C177.855 19.1721 176.662 21.2064 176.355 22.978C176.047 24.7496 174.33 26.2284 171.69 27.2043C171.368 27.3319 171.03 27.437 170.685 27.5421C168.62 28.123 166.497 28.473 164.355 28.5855C164.047 28.5855 163.747 28.5855 163.432 28.6381C160.909 28.7309 158.382 28.6381 155.872 28.3603L154.995 28.2477C153.982 28.1201 152.94 27.97 151.897 27.7823C150.855 27.5946 149.842 27.3845 148.845 27.1517C148.56 27.0917 148.275 27.0166 147.99 26.9491C145.634 26.3667 143.323 25.614 141.075 24.6971C140.797 24.592 140.535 24.4719 140.272 24.3668C138.3 23.5263 136.428 22.4662 134.692 21.2064C134.43 21.0188 134.19 20.8311 133.942 20.6359C131.617 18.7367 130.425 16.6949 130.762 14.7957C130.987 13.5646 131.167 9.54102 132.487 8.63271C133.807 7.7244 135.697 7.43915 137.947 7.43164H138.847C143.347 7.58177 149.145 8.83539 155.062 9.88633C162.037 11.1324 170.205 12.2209 174.6 14.578C174.858 14.7148 175.108 14.8651 175.35 15.0284C175.704 15.2471 176.04 15.493 176.355 15.7641Z" fill="black"/>
<g id="Group_11" opacity="0.2">
<path id="Path_31" d="M139.095 6.66593L138.855 7.45414L134.685 21.2214C134.422 21.0338 134.182 20.8461 133.935 20.6509L137.94 7.44663L138.255 6.41821L139.095 6.66593Z" fill="black"/>
</g>
<g id="Group_12" opacity="0.2">
<path id="Path_32" d="M145.365 10.5093L141.067 24.6895C140.79 24.5844 140.527 24.4643 140.265 24.3592L144.54 10.2466L145.365 10.5093Z" fill="black"/>
</g>
<g id="Group_13" opacity="0.2">
<path id="Path_33" d="M159.937 14.9533L155.865 28.3828L154.987 28.2702L159.105 14.6981L159.937 14.9533Z" fill="black"/>
</g>
<g id="Group_14" opacity="0.2">
<path id="Path_34" d="M153.165 12.8965L148.837 27.1592C148.552 27.0991 148.267 27.0241 147.982 26.9565L152.332 12.6262L153.165 12.8965Z" fill="black"/>
</g>
<g id="Group_15" opacity="0.2">
<path id="Path_35" d="M168.315 15.5389L164.347 28.608C164.04 28.608 163.74 28.608 163.425 28.6606L167.482 15.2911L168.315 15.5389Z" fill="black"/>
</g>
<ellipse id="Oval_3" cx="154.226" cy="14.6426" rx="9.08286" ry="23.0706" transform="rotate(-79.91 154.226 14.6426)" fill="#1A87DD"/>
<ellipse id="Oval_4" opacity="0.2" cx="154.697" cy="14.7319" rx="6.41806" ry="18.2555" transform="rotate(-79.91 154.697 14.7319)" fill="white"/>
</g>
<g id="freepik--Wallet--inject-8">
<path id="Path_36" d="M241.83 149.106L164.647 153.61C161.921 153.77 159.246 154.421 156.75 155.531L72.915 193.065C69.8838 194.399 68.1959 197.671 68.865 200.917L82.7175 266.488C83.1921 268.628 84.6283 270.428 86.6082 271.364C88.5881 272.301 90.8894 272.269 92.8425 271.277L175.59 229.93L252 227.371C253.902 227.32 255.69 226.452 256.909 224.99C258.128 223.527 258.659 221.611 258.367 219.729L248.145 156.943C247.612 153.7 245.152 149.008 241.83 149.106Z" fill="#1A87DD"/>
<path id="Path_37" opacity="0.1" d="M241.83 149.106L164.647 153.61C161.921 153.77 159.246 154.421 156.75 155.531L72.915 193.065C69.8838 194.399 68.1959 197.671 68.865 200.917L82.7175 266.488C83.1921 268.628 84.6283 270.428 86.6082 271.364C88.5881 272.301 90.8894 272.269 92.8425 271.277L175.59 229.93L252 227.371C253.902 227.32 255.69 226.452 256.909 224.99C258.128 223.527 258.659 221.611 258.367 219.729L248.145 156.943C247.612 153.7 245.152 149.008 241.83 149.106Z" fill="black"/>
<path id="Rectangle_32" d="M46.405 143.781L86.9092 106.411L159.595 185.334L119.091 222.704L46.405 143.781Z" fill="#1A87DD"/>
<path id="Path_38" opacity="0.5" d="M159.585 185.341L119.077 222.709L46.4025 143.791L72.9825 119.267L86.91 106.415L89.2275 108.937L159.585 185.341Z" fill="#FAFAFA"/>
<path id="Rectangle_33" fill-rule="evenodd" clip-rule="evenodd" d="M51.4297 144.21L87.1693 111.236L155.159 185.058L119.419 218.033L51.4297 144.21Z" stroke="#1A87DD"/>
<ellipse id="Oval_5" cx="102.755" cy="164.057" rx="10.0991" ry="12.6661" transform="rotate(-42.67 102.755 164.057)" fill="#1A87DD"/>
<path id="Path_39" opacity="0.1" d="M118.65 190.678L104.257 195.655L72.9825 119.267L86.91 106.415L89.2275 108.937L118.65 190.678Z" fill="black"/>
<path id="Rectangle_34" d="M69.6659 94.2858L121.454 75.4913L158.01 176.401L106.222 195.196L69.6659 94.2858Z" fill="#1A87DD"/>
<path id="Rectangle_35" opacity="0.5" d="M69.6659 94.2858L121.454 75.4913L158.01 176.401L106.222 195.196L69.6659 94.2858Z" fill="#FAFAFA"/>
<path id="Rectangle_36" fill-rule="evenodd" clip-rule="evenodd" d="M74.13 96.6254L119.826 80.0416L154.02 174.431L108.324 191.014L74.13 96.6254Z" stroke="#1A87DD"/>
<ellipse id="Oval_6" cx="113.81" cy="134.782" rx="10.096" ry="12.67" transform="rotate(-19.93 113.81 134.782)" fill="#1A87DD"/>
<path id="Path_40" d="M242.333 151.771L166.208 156.064C163.509 156.212 160.861 156.862 158.4 157.979L75.795 195.302C72.7976 196.658 71.1446 199.917 71.82 203.139L85.6725 268.74C86.1247 270.867 87.5362 272.664 89.4943 273.605C91.4524 274.547 93.736 274.527 95.6775 273.552L177.202 232.438L252.562 230.05C254.45 229.991 256.22 229.12 257.421 227.661C258.621 226.202 259.136 224.297 258.833 222.431L248.58 159.653C248.048 156.38 245.618 151.68 242.333 151.771Z" fill="#1A87DD"/>
<path id="Path_41" opacity="0.2" d="M169.305 167.55L234.622 163.526" stroke="black" stroke-width="2" stroke-linecap="round" stroke-linejoin="round"/>
<path id="Path_42" opacity="0.2" d="M161.482 169.239L173.415 224.098" stroke="black" stroke-width="2" stroke-linecap="round" stroke-linejoin="round"/>
<path id="Path_43" opacity="0.2" d="M81.9225 218.768L90.3375 260.963C90.3375 260.963 96.7875 244.223 81.9225 218.768Z" fill="#FAFAFA"/>
<path id="Path_44" opacity="0.2" d="M83.025 219.263C83.3175 220.014 157.77 188.035 157.77 188.035C158.181 202.82 150.247 216.579 137.25 223.617C114.84 236.191 83.025 219.263 83.025 219.263Z" fill="#FAFAFA"/>
<ellipse id="Oval_7" cx="132.48" cy="217.282" rx="3.225" ry="3.22788" fill="#1A87DD"/>
<path id="Path_45" opacity="0.2" d="M157.807 188.035C157.807 188.035 167.04 201.945 164.805 225.636L157.807 188.035Z" fill="black"/>
<g id="Group_16" opacity="0.2">
<path id="Path_46" d="M78.36 202.193L80.0775 201.435" stroke="#FAFAFA" stroke-linecap="round" stroke-linejoin="round"/>
<path id="Path_47" d="M83.64 199.859L153.165 169.096" stroke="#FAFAFA" stroke-linecap="round" stroke-linejoin="round" stroke-dasharray="5.2 5.2"/>
<path id="Path_48" d="M154.95 168.308L156.66 167.55" stroke="#FAFAFA" stroke-linecap="round" stroke-linejoin="round"/>
</g>
<path id="Path_49" opacity="0.2" d="M171.495 179.883L236.812 175.852" stroke="black" stroke-width="2" stroke-linecap="round" stroke-linejoin="round"/>
<path id="Path_50" opacity="0.2" d="M174.435 195.264L239.752 191.233" stroke="black" stroke-width="2" stroke-linecap="round" stroke-linejoin="round"/>
</g>
<g id="freepik--Character--inject-8">
<path id="Path_51" d="M225.435 85.9968C225.435 85.9968 223.792 103.51 217.29 105.019C213.263 105.889 209.065 105.469 205.29 103.818L200.002 99.7491L197.422 108.757C197.422 108.757 200.242 112.593 206.13 109.936C206.13 109.936 216.63 114.56 222.435 109.936C228.24 105.312 230.1 92.6252 230.1 92.6252L225.435 85.9968Z" fill="#B97964"/>
<path id="Path_52" d="M230.662 77.5142C230.662 77.5142 226.125 69.7748 228.187 55.7448C230.25 41.7147 242.002 39.9807 246.54 40.9941C251.077 42.0075 254.79 46.3689 257.88 54.6713C260.97 62.9737 262.11 65.1356 267.262 63.6793C272.415 62.223 286.125 57.674 289.942 61.7201C292.172 63.9646 293.137 67.1743 292.515 70.2777C292.515 70.2777 311.587 65.6386 309.937 82.6638C308.287 99.689 280.762 115.581 254.58 98.7582C228.397 81.9356 230.662 77.5142 230.662 77.5142Z" fill="#263238"/>
<path id="Path_53" d="M230.452 118.718C230.452 118.718 225.27 163.331 225.442 184.252C225.615 205.173 233.04 254.477 233.04 254.477H242.197C242.197 254.477 240.99 215.052 241.162 201.562C241.335 188.073 243.75 165.755 243.75 165.755C243.75 165.755 246.682 185.813 250.14 192.9C253.597 199.986 272.775 225.066 286.08 232.85L292.297 227.138C292.297 227.138 278.475 210.022 273.292 201.547C268.11 193.072 263.452 190.67 261.547 174.906C259.642 159.142 262.935 133.927 257.407 118.711L230.452 118.718Z" fill="#263238"/>
<path id="Path_54" opacity="0.2" d="M243.75 165.756L239.767 137.478C239.767 137.478 236.625 154.473 242.812 175.229L243.75 165.756Z" fill="black"/>
<path id="Path_55" d="M234.922 256.977L235.23 265.737L241.372 266.248L241.68 265.429V256.361L234.922 256.977Z" fill="#B97964"/>
<path id="Path_56" d="M232.005 253.644L232.567 256.924L243.112 257.18L243.78 253.239L232.005 253.644Z" fill="#1A87DD"/>
<path id="Path_57" d="M283.192 233.458L292.965 224.345L295.117 227.776L286.725 235.463L283.192 233.458Z" fill="#1A87DD"/>
<path id="Path_58" d="M287.902 233.458L294.352 238.893L298.492 234.021L293.197 228.542L287.902 233.458Z" fill="#B97964"/>
<path id="Path_59" d="M299.745 233.646L303.645 236.048C304.005 236.27 304.248 236.64 304.31 237.058C304.373 237.476 304.247 237.901 303.967 238.218C301.14 241.415 293.917 249.538 293.197 250.108C292.305 250.859 291.225 249.598 290.947 248.472C290.947 248.472 292.995 245.754 293.197 244.013C293.283 242.668 293.283 241.319 293.197 239.974C293.182 239.638 293.294 239.308 293.512 239.051L297.87 233.931C298.335 233.38 299.137 233.258 299.745 233.646Z" fill="#263238"/>
<path id="Path_60" d="M242.872 266.488L243.682 270.992C243.758 271.409 243.645 271.838 243.375 272.164C243.104 272.49 242.703 272.679 242.28 272.681C238.012 272.681 227.152 272.726 226.245 272.576C225.112 272.388 225.315 270.767 225.982 269.821C225.982 269.821 229.365 269.536 230.782 268.507C231.837 267.679 232.839 266.787 233.782 265.835C234.024 265.599 234.345 265.462 234.682 265.452L241.395 265.294C242.116 265.268 242.746 265.777 242.872 266.488Z" fill="#263238"/>
<path id="Path_61" d="M258.39 93.9764L267.75 87.4006C267.75 87.4006 265.26 77.4317 261.57 76.9362C257.88 76.4408 239.565 72.9502 227.917 76.9362C227.917 76.9362 223.732 78.1298 222.442 89.8928L227.422 91.4842C227.422 91.4842 229.207 113.509 230.31 116.902H256.89C256.89 116.902 257.19 97.9625 258.39 93.9764Z" fill="#1A87DD"/>
<path id="Path_62" d="M260.407 92.5576C260.407 92.5576 263.955 102.692 264.585 108.142C264.585 108.142 256.155 104.779 253.98 103.24L252.33 97.3094L246.75 94.5844L245.092 99.0885L249.75 104.869C249.75 104.869 262.447 116.759 268.882 114.042C275.317 111.324 266.34 88.4139 266.34 88.4139L260.407 92.5576Z" fill="#FFB573"/>
<path id="Path_63" d="M236.595 48.1856C236.595 48.1856 233.347 54.6714 233.595 59.9486C233.842 65.2258 236.505 67.3802 241.567 68.1234C241.567 68.1234 243.727 74.8794 238.057 75.5625C237.622 75.6151 237.472 77.3341 237.502 77.6118C237.652 78.7078 238.74 79.3083 239.752 79.5636C240.819 79.7999 241.908 79.9207 243 79.9239C245.324 80.0041 247.556 79.0103 249.052 77.229C249.172 77.0864 250.312 75.6301 250.312 75.6301C250.312 75.6301 247.605 74.2864 248.557 65.4885C249.85 64.6466 250.842 63.4168 251.392 61.9754C252.437 61.4202 253.216 60.4681 253.552 59.333C253.957 57.5764 252.405 55.1443 249.57 57.5764C249.57 57.5764 244.23 54.874 242.205 45.4081C240.703 46.9434 238.725 47.9227 236.595 48.1856Z" fill="#FFB573"/>
<path id="Path_64" d="M238.117 58.5073L238.575 55.0392L236.122 57.7566C236.635 58.3029 237.372 58.5802 238.117 58.5073Z" fill="#ED893E"/>
<path id="Path_65" d="M239.542 61.0445C239.542 61.0445 242.13 61.4423 243.375 59.7833" stroke="#222221" stroke-width="0.75" stroke-linecap="round" stroke-linejoin="round"/>
<path id="Path_66" d="M242.13 50.1823C243.327 49.8418 244.613 50.1847 245.482 51.0756" stroke="#222221" stroke-linecap="round" stroke-linejoin="round"/>
<path id="Path_67" d="M237.652 49.4317C237.652 49.4317 236.152 49.1989 235.485 50.0472" stroke="#222221" stroke-linecap="round" stroke-linejoin="round"/>
<path id="Path_68" d="M243.172 54.7464C243.105 55.2718 242.767 55.6547 242.422 55.6096C242.077 55.5646 241.845 55.1067 241.912 54.5812C241.98 54.0558 242.317 53.6729 242.662 53.718C243.007 53.763 243.24 54.2209 243.172 54.7464Z" fill="#222221"/>
<ellipse id="Oval_8" cx="236.553" cy="53.5023" rx="0.953337" ry="0.637509" transform="rotate(-82.6 236.553 53.5023)" fill="#222221"/>
<path id="Path_69" d="M242.67 53.718L241.485 53.2C241.517 53.4642 241.686 53.6918 241.929 53.7982C242.173 53.9047 242.455 53.8742 242.67 53.718Z" fill="#222221"/>
<path id="Path_70" d="M236.79 52.607L235.605 52.089C235.637 52.3532 235.806 52.5808 236.049 52.6873C236.293 52.7938 236.575 52.7632 236.79 52.607Z" fill="#222221"/>
<path id="Path_71" d="M229.38 115.731V118.861L258.18 119.101L257.407 115.378L229.38 115.731Z" fill="#1A87DD"/>
<path id="Path_72" opacity="0.4" d="M229.38 115.731V118.861L258.18 119.101L257.407 115.378L229.38 115.731Z" fill="white"/>
</g>
<g id="freepik--Card--inject-8">
<path id="Path_73" d="M229.732 100.537L213.893 155.682C212.815 159.46 209.548 162.201 205.643 162.603C204.427 162.719 203.201 162.607 202.028 162.272L171.75 153.557C166.654 152.085 163.709 146.764 165.165 141.659L181.013 86.4997C182.486 81.4061 187.799 78.4654 192.893 79.9239L223.193 88.6316C228.277 90.1194 231.201 95.4431 229.732 100.537Z" fill="#1A87DD"/>
<path id="Path_74" opacity="0.2" d="M229.732 100.537L213.893 155.682C212.815 159.46 209.548 162.201 205.643 162.603C204.427 162.719 203.201 162.607 202.028 162.272L171.75 153.557C166.654 152.085 163.709 146.764 165.165 141.659L181.013 86.4997C182.486 81.4061 187.799 78.4654 192.893 79.9239L223.193 88.6316C228.277 90.1194 231.201 95.4431 229.732 100.537Z" fill="black"/>
<path id="Path_75" d="M227.1 101.19L211.26 156.342C210.448 159.187 208.37 161.498 205.628 162.603C204.412 162.719 203.186 162.607 202.013 162.272L171.75 153.557C166.654 152.085 163.709 146.764 165.165 141.659L181.013 86.4997C181.825 83.6587 183.904 81.3532 186.645 80.2542C187.86 80.1303 189.087 80.2425 190.26 80.5845L220.5 89.3298C225.586 90.7919 228.536 96.0926 227.1 101.19Z" fill="#1A87DD"/>
<path id="Path_76" opacity="0.5" d="M227.1 101.19L211.26 156.342C210.448 159.187 208.37 161.498 205.628 162.603C204.412 162.719 203.186 162.607 202.013 162.272L171.75 153.557C166.654 152.085 163.709 146.764 165.165 141.659L181.013 86.4997C181.825 83.6587 183.904 81.3532 186.645 80.2542C187.86 80.1303 189.087 80.2425 190.26 80.5845L220.5 89.3298C225.586 90.7919 228.536 96.0926 227.1 101.19Z" fill="#FAFAFA"/>
<path id="Rectangle_37" d="M181.275 104.966L184.516 105.88L172.85 147.31L169.608 146.395L181.275 104.966Z" fill="#FAFAFA"/>
<path id="Path_77" d="M177.503 148.625L174.263 147.687L185.925 106.272L189.158 107.203L177.503 148.625Z" fill="#FAFAFA"/>
<path id="Path_78" d="M182.213 149.976L178.973 149.046L190.635 107.631L193.875 108.562L182.213 149.976Z" fill="#FAFAFA"/>
<path id="Rectangle_38" opacity="0.5" d="M209.494 113.075L212.736 113.989L201.07 155.419L197.828 154.504L209.494 113.075Z" fill="black"/>
<path id="Path_79" d="M212.325 102.279L210.75 107.901L208.83 107.361C206.894 106.811 205.767 104.797 206.31 102.857L207.36 99.1035L211.238 100.215C212.107 100.485 212.593 101.408 212.325 102.279Z" fill="#FAFAFA"/>
<path id="Path_80" d="M211.402 99.5239L207.525 98.4129L208.687 94.2992C208.95 93.3672 209.571 92.5776 210.415 92.1045C211.259 91.6315 212.257 91.5136 213.187 91.7769L215.182 92.3399L213.442 98.3978C213.326 98.821 213.044 99.1791 212.66 99.3911C212.276 99.603 211.822 99.6509 211.402 99.5239Z" fill="#FAFAFA"/>
<path id="Path_81" d="M215.078 101.341L218.978 102.459L217.943 106.13C217.684 107.064 217.063 107.856 216.218 108.33C215.373 108.804 214.374 108.92 213.443 108.652L211.418 108.082L213.03 102.467C213.15 102.044 213.434 101.687 213.819 101.476C214.204 101.264 214.657 101.215 215.078 101.341Z" fill="#FAFAFA"/>
<path id="Path_82" d="M220.358 97.5872L219.18 101.761L215.28 100.642C214.411 100.388 213.909 99.4803 214.155 98.6081L215.895 92.5502L217.838 93.0982C218.766 93.3589 219.554 93.9784 220.026 94.8202C220.499 95.6621 220.618 96.6574 220.358 97.5872Z" fill="#FAFAFA"/>
</g>
</g>
</svg>
