<svg width="18" height="18" viewBox="0 0 18 18" fill="none" xmlns="http://www.w3.org/2000/svg">
<path fill-rule="evenodd" clip-rule="evenodd" d="M1.53675 8.25H5.262C5.3265 6.20025 5.6565 4.33275 6.174 2.91C6.30675 2.5455 6.4545 2.20125 6.61875 1.88625C3.8715 2.805 1.833 5.271 1.53675 8.25ZM9 0C4.02975 0 0 4.02975 0 9C0 13.9703 4.02975 18 9 18C13.9703 18 18 13.9703 18 9C18 4.02975 13.9703 0 9 0ZM9 1.5C8.88675 1.5 8.682 1.56075 8.40075 1.887C8.1225 2.211 7.8375 2.724 7.58325 3.42225C7.1355 4.65525 6.82725 6.342 6.76275 8.25H11.2373C11.1728 6.342 10.8645 4.65525 10.4167 3.42225C10.1625 2.724 9.8775 2.211 9.59925 1.887C9.318 1.56075 9.11325 1.5 9 1.5ZM12.738 8.25C12.6728 6.20025 12.3435 4.33275 11.826 2.91C11.6933 2.5455 11.5455 2.20125 11.3813 1.88625C14.1285 2.805 16.167 5.271 16.4632 8.25H12.738ZM11.2373 9.75H6.76275C6.82725 11.658 7.1355 13.3448 7.58325 14.5778C7.8375 15.276 8.1225 15.789 8.40075 16.113C8.682 16.4392 8.88675 16.5 9 16.5C9.11325 16.5 9.318 16.4392 9.59925 16.113C9.8775 15.789 10.1625 15.276 10.4167 14.5778C10.8645 13.3448 11.1728 11.658 11.2373 9.75ZM11.3813 16.1138C11.5455 15.7987 11.6933 15.4545 11.826 15.09C12.3435 13.6672 12.6728 11.7998 12.738 9.75H16.4632C16.167 12.729 14.1285 15.195 11.3813 16.1138ZM6.61875 16.1138C6.4545 15.7987 6.30675 15.4545 6.174 15.09C5.6565 13.6672 5.3265 11.7998 5.262 9.75H1.53675C1.833 12.729 3.8715 15.195 6.61875 16.1138Z" fill="black"/>
</svg>
