<svg width="14" height="18" viewBox="0 0 14 18" fill="none" xmlns="http://www.w3.org/2000/svg">
<path fill-rule="evenodd" clip-rule="evenodd" d="M6.834 1.51867C3.89842 1.51867 1.51867 3.89538 1.51867 6.834C1.51867 8.98291 2.47619 11.0711 3.66227 12.81C4.81417 14.5109 6.13541 15.8169 6.834 16.4548C7.53259 15.8169 8.85383 14.5109 10.0057 12.81C11.1918 11.0711 12.1493 8.98291 12.1493 6.834C12.1493 3.89538 9.76958 1.51867 6.834 1.51867ZM0 6.834C0 3.06011 3.05935 0 6.834 0C10.6086 0 13.668 3.06011 13.668 6.834C13.668 9.41574 12.5282 11.8 11.2624 13.668C9.98979 15.536 8.53946 16.9559 7.80595 17.6241C7.25088 18.1253 6.41713 18.1253 5.86205 17.6241C5.12854 16.9559 3.67821 15.536 2.40557 13.668C1.13976 11.8 0 9.41574 0 6.834ZM6.834 5.31533C5.9957 5.31533 5.31533 5.99873 5.31533 6.834C5.31533 7.66927 5.9957 8.35267 6.834 8.35267C7.67231 8.35267 8.35267 7.66927 8.35267 6.834C8.35267 5.99873 7.67231 5.31533 6.834 5.31533ZM6.834 3.79667C8.51137 3.79667 9.87134 5.15587 9.87134 6.834C9.87134 8.51213 8.51137 9.87134 6.834 9.87134C5.15663 9.87134 3.79667 8.51213 3.79667 6.834C3.79667 5.15587 5.15663 3.79667 6.834 3.79667Z" fill="black"/>
</svg>
