<svg width="18" height="19" viewBox="0 0 18 19" fill="none" xmlns="http://www.w3.org/2000/svg">
<path fill-rule="evenodd" clip-rule="evenodd" d="M5.94548 5.96834C6.24674 5.66708 6.24674 5.17864 5.94548 4.87738C5.64422 4.57612 5.15578 4.57612 4.85451 4.87738L0.740229 8.99166C0.438967 9.29292 0.438967 9.78137 0.740229 10.0826L4.85451 14.1969C5.15578 14.4982 5.64422 14.4982 5.94548 14.1969C6.24674 13.8957 6.24674 13.4072 5.94548 13.1059L3.1481 10.3086H10.8514C11.1071 10.3086 11.3143 9.96319 11.3143 9.53715C11.3143 9.1111 11.1071 8.76572 10.8514 8.76572H3.1481L5.94548 5.96834ZM14.7886 2.02858H5.82857C5.44986 2.02858 5.14285 1.6832 5.14285 1.25715C5.14285 0.831099 5.44986 0.485718 5.82857 0.485718H14.7886C16.2643 0.485718 17.4857 1.73484 17.4857 3.31429V15.6571C17.4857 17.2366 16.2643 18.4857 14.7886 18.4857H5.82857C5.44986 18.4857 5.14285 18.1403 5.14285 17.7143C5.14285 17.2882 5.44986 16.9429 5.82857 16.9429H14.7886C15.5346 16.9429 16.1143 16.35 16.1143 15.6571V3.31429C16.1143 2.62148 15.5346 2.02858 14.7886 2.02858Z" fill="black"/>
</svg>
