<svg width="17" height="17" viewBox="0 0 17 17" fill="none" xmlns="http://www.w3.org/2000/svg">
<path fill-rule="evenodd" clip-rule="evenodd" d="M2.25806 1.55178C1.80649 1.55178 1.52018 1.90404 1.5551 2.24853C2.24487 9.21371 7.78629 14.7551 14.7515 15.4449C15.096 15.4798 15.4482 15.1935 15.4482 14.7419V11.9805C15.4482 11.6469 15.2348 11.3505 14.9175 11.245L12.2329 10.3496C11.9544 10.2573 11.6471 10.3294 11.4392 10.5374L11.0093 10.9672C10.4957 11.4809 9.67636 11.5794 9.05642 11.155C7.58843 10.151 6.73418 9.30217 5.8225 7.93039C5.41051 7.30968 5.51835 6.5043 6.02346 5.99997L6.46262 5.56082C6.67055 5.35288 6.74271 5.04562 6.6496 4.76708L5.755 2.08249C5.64948 1.76515 5.35309 1.55178 5.01946 1.55178H2.25806ZM0.0110753 2.40216C-0.12393 1.04125 0.995682 0 2.25806 0H5.01946C6.02113 0 6.9103 0.640887 7.22687 1.59135L8.12225 4.27594C8.40079 5.11235 8.18354 6.03489 7.55973 6.65793L7.12755 7.0901C7.9112 8.26635 8.61571 8.97241 9.91766 9.86469L10.3421 9.44027C10.9651 8.81646 11.8876 8.59921 12.7241 8.87775L15.4086 9.77313C16.3591 10.0897 17 10.9789 17 11.9805V14.7419C17 16.0043 15.9588 17.1239 14.5978 16.9889C6.89711 16.2262 0.773777 10.1029 0.0110753 2.40216ZM10.7929 0.775892C10.7929 0.3476 11.1405 0 11.5688 0C14.5684 0 17 2.43164 17 5.43124C17 5.85953 16.6524 6.20713 16.2241 6.20713C15.7958 6.20713 15.4482 5.85953 15.4482 5.43124C15.4482 3.28901 13.711 1.55178 11.5688 1.55178C11.1405 1.55178 10.7929 1.20418 10.7929 0.775892ZM10.7929 3.87946C10.7929 3.45117 11.1405 3.10357 11.5688 3.10357C12.8544 3.10357 13.8964 4.14559 13.8964 5.43124C13.8964 5.85953 13.5488 6.20713 13.1205 6.20713C12.6922 6.20713 12.3447 5.85953 12.3447 5.43124C12.3447 5.00295 11.9971 4.65535 11.5688 4.65535C11.1405 4.65535 10.7929 4.30775 10.7929 3.87946Z" fill="black"/>
</svg>
